<svg width="536" height="404" viewBox="0 0 536 404" fill="none" xmlns="http://www.w3.org/2000/svg">
<path d="M58.2957 320.089C52.2498 320.089 46.5398 317.775 42.1862 313.561C37.7422 309.257 35.236 303.466 35.1327 297.274C35.0551 292.608 36.3599 288.097 38.9049 284.206C39.0987 283.909 39.4862 283.831 39.7833 284.025C40.0805 284.219 40.158 284.607 39.9642 284.904C37.5614 288.575 36.3212 292.854 36.3987 297.261C36.4891 303.117 38.8661 308.585 43.0647 312.656C47.2632 316.728 52.7924 318.913 58.6574 318.822C70.7363 318.628 80.3994 308.636 80.2056 296.551C80.0118 284.465 70.0128 274.783 57.9469 274.99C53.5933 275.067 49.3948 276.412 45.8292 278.881C45.545 279.075 45.1446 279.01 44.9508 278.726C44.757 278.441 44.8216 278.04 45.1058 277.847C48.878 275.223 53.3091 273.801 57.921 273.723C58.0502 273.723 58.1794 273.723 58.3086 273.723C70.9171 273.723 81.2649 283.883 81.4716 296.538C81.6783 309.321 71.4597 319.895 58.6832 320.102C58.554 320.102 58.4249 320.102 58.2957 320.102V320.089Z" fill="black"/>
<path d="M58.2956 334.088C38.078 334.088 21.4776 317.801 21.1418 297.507C20.9997 289.131 23.5963 281.181 28.6345 274.512C28.8412 274.227 29.2417 274.175 29.5259 274.382C29.8101 274.589 29.8618 274.99 29.6551 275.274C24.7977 281.711 22.2915 289.402 22.4207 297.494C22.7437 317.103 38.7885 332.821 58.3085 332.834C58.5023 332.834 58.709 332.834 58.9028 332.834C78.694 332.511 94.5322 316.133 94.2093 296.331C94.0542 286.74 90.1787 277.782 83.2801 271.112C76.3945 264.442 67.3128 260.849 57.7272 261.004C49.6143 261.133 41.9924 263.912 35.701 269.018C35.4297 269.238 35.0292 269.199 34.8096 268.928C34.59 268.656 34.6288 268.255 34.9001 268.036C41.411 262.749 49.2914 259.879 57.7013 259.737C67.6099 259.582 77.0146 263.292 84.1586 270.194C91.2897 277.097 95.3073 286.378 95.4753 296.305C95.8112 316.806 79.4175 333.752 58.9286 334.088C58.7219 334.088 58.5152 334.088 58.3085 334.088H58.2956Z" fill="black"/>
<path d="M68.088 296.744C67.9975 291.341 63.5535 287.024 58.1536 287.114C52.7536 287.205 48.4388 291.651 48.5292 297.054C48.6197 302.457 53.0636 306.775 58.4636 306.684C63.8636 306.594 68.1784 302.147 68.088 296.744Z" fill="#1490FE"/>
<path d="M58.3085 307.318C55.5956 307.318 53.0248 306.284 51.0741 304.384C49.0717 302.445 47.9478 299.847 47.9091 297.067C47.8574 294.288 48.9038 291.651 50.8416 289.648C52.7794 287.644 55.376 286.52 58.1535 286.481C60.9439 286.442 63.5664 287.476 65.5688 289.415C67.5711 291.354 68.695 293.952 68.7338 296.731C68.7855 299.51 67.7391 302.147 65.8013 304.151C63.8635 306.154 61.2669 307.279 58.4894 307.318C58.4377 307.318 58.3731 307.318 58.3214 307.318H58.3085ZM58.3085 287.748C58.3085 287.748 58.2052 287.748 58.1535 287.748C55.7119 287.787 53.4253 288.782 51.733 290.54C50.0277 292.298 49.1234 294.612 49.1622 297.055C49.2397 302.096 53.4124 306.142 58.4635 306.064C60.9051 306.025 63.1917 305.03 64.8841 303.272C66.5893 301.514 67.4936 299.2 67.4549 296.757C67.3774 291.755 63.2822 287.748 58.3085 287.748Z" fill="black"/>
<path d="M58.3085 297.533C58.1535 297.533 57.9856 297.468 57.8693 297.352L16.7107 257.488C16.4652 257.242 16.4523 256.842 16.6978 256.596C16.9432 256.35 17.3437 256.338 17.5892 256.583L58.7478 296.447C58.9932 296.693 59.0061 297.093 58.7607 297.339C58.6315 297.468 58.4765 297.533 58.3085 297.533Z" fill="black"/>
<path d="M27.3556 267.092L17.0724 257.126L7.62891 258.238L17.9121 268.204L27.3556 267.092Z" fill="black"/>
<path d="M17.9123 268.837C17.7444 268.837 17.5894 268.772 17.4731 268.656L7.1899 258.69C7.00904 258.522 6.95737 258.263 7.03488 258.031C7.11239 257.798 7.31909 257.63 7.56454 257.604L17.008 256.492C17.2018 256.467 17.3827 256.531 17.5248 256.66L27.808 266.626C27.9888 266.795 28.0405 267.053 27.963 267.286C27.8855 267.518 27.6788 267.686 27.4333 267.712L17.9898 268.824C17.9898 268.824 17.9382 268.824 17.9123 268.824V268.837ZM9.02434 258.716L18.1319 267.544L25.9477 266.626L16.8401 257.798L9.02434 258.716Z" fill="black"/>
<path d="M27.4331 267.002L17.1499 257.036L17.8733 247.651L28.1565 257.604L27.4331 267.002Z" fill="black"/>
<path d="M27.4332 267.635C27.2782 267.635 27.1103 267.57 26.994 267.454L16.7108 257.488C16.5816 257.359 16.5041 257.178 16.517 256.984L17.2405 247.587C17.2534 247.341 17.4213 247.134 17.6409 247.044C17.8735 246.953 18.1318 247.005 18.2998 247.186L28.583 257.152C28.7122 257.281 28.7897 257.462 28.7768 257.656L28.0533 267.053C28.0404 267.299 27.8725 267.506 27.6528 267.596C27.5753 267.622 27.4978 267.635 27.4332 267.635ZM17.796 256.79L26.9036 265.605L27.4978 257.85L18.3902 249.034L17.796 256.79Z" fill="black"/>
<path d="M514.202 102.147L510.456 99.6776C505.715 96.5495 499.281 98.6694 497.33 104.008L495.793 108.222C489.618 107.42 490.677 107.55 484.502 106.748L484.102 102.276C483.585 96.6142 477.927 92.9044 472.54 94.714L468.29 96.1359C465.073 90.7974 465.628 91.7152 462.399 86.3897L465.641 83.2874C469.749 79.3579 469.103 72.6105 464.336 69.5212L460.577 67.0782C462.735 61.2356 462.373 62.2438 464.53 56.3883L468.974 56.9829C474.607 57.7456 479.477 53.0405 478.922 47.3789L478.482 42.9065C484.399 40.9546 483.378 41.2907 489.295 39.3389L491.595 43.1908C494.514 48.0769 501.219 48.9429 505.301 44.9875L508.518 41.8594C513.737 45.2719 512.833 44.6773 518.052 48.0898L516.476 52.2908C514.486 57.6163 517.974 63.4072 523.62 64.131L528.064 64.6998C528.645 70.9043 528.555 69.8314 529.136 76.0359L524.873 77.4319C519.473 79.1899 517.122 85.5366 520.08 90.3967L522.418 94.2358C517.936 98.566 518.711 97.8163 514.228 102.147H514.202Z" fill="white"/>
<path d="M495.793 108.855C495.793 108.855 495.742 108.855 495.716 108.855L484.425 107.381C484.128 107.343 483.908 107.11 483.882 106.813L483.482 102.34C483.249 99.8327 481.919 97.6094 479.813 96.2263C477.707 94.8432 475.136 94.52 472.747 95.3215L468.496 96.7433C468.212 96.8338 467.902 96.7175 467.76 96.4719L461.869 86.7256C461.714 86.4671 461.753 86.144 461.972 85.9372L465.215 82.8349C467.037 81.0899 467.941 78.6598 467.695 76.1521C467.463 73.6445 466.106 71.4212 464.001 70.051L460.241 67.608C459.996 67.4529 459.893 67.1298 459.996 66.8583L463.949 56.1685C464.052 55.897 464.337 55.7161 464.621 55.7548L469.065 56.3494C471.558 56.6855 474.025 55.8712 475.834 54.1262C477.643 52.3811 478.534 49.9381 478.289 47.4305L477.849 42.9581C477.824 42.6608 478.004 42.3893 478.276 42.2988L489.089 38.7312C489.373 38.6408 489.683 38.7571 489.825 39.0027L492.124 42.8546C493.416 45.0133 495.587 46.4352 498.08 46.7712C500.573 47.0944 503.041 46.28 504.836 44.5221L508.053 41.394C508.26 41.1872 508.596 41.1613 508.841 41.3164L518.375 47.5468C518.62 47.7148 518.724 48.0251 518.62 48.2965L517.044 52.4975C516.166 54.85 516.398 57.4352 517.703 59.5939C519.008 61.7525 521.178 63.1615 523.672 63.4846L528.116 64.0534C528.413 64.0921 528.632 64.3248 528.671 64.6221L529.743 75.9582C529.769 76.2555 529.588 76.527 529.304 76.6175L525.041 78.0006C522.651 78.7761 520.778 80.5858 519.899 82.9383C519.021 85.3038 519.279 87.889 520.584 90.0347L522.922 93.8737C523.077 94.1323 523.039 94.4554 522.819 94.6622L514.629 102.573C514.409 102.78 514.086 102.806 513.841 102.651L510.094 100.182C507.988 98.7986 505.418 98.4496 503.028 99.2381C500.638 100.027 498.777 101.836 497.912 104.202L496.375 108.416C496.284 108.674 496.039 108.829 495.78 108.829L495.793 108.855ZM485.084 106.179L495.367 107.524L496.736 103.788C497.731 101.061 499.888 98.9666 502.64 98.0618C505.405 97.157 508.376 97.5447 510.792 99.1476L514.112 101.345L521.579 94.1323L519.512 90.7327C518 88.2509 517.716 85.265 518.724 82.5376C519.731 79.8102 521.889 77.7291 524.653 76.8372L528.439 75.6092L527.457 65.2813L523.504 64.7772C520.623 64.4153 518.104 62.7737 516.605 60.2919C515.107 57.8101 514.822 54.8112 515.843 52.0968L517.238 48.3741L508.557 42.6995L505.702 45.4786C503.622 47.508 500.78 48.4516 497.899 48.0768C495.018 47.7019 492.512 46.0603 491.026 43.5656L488.985 40.1531L479.141 43.4105L479.529 47.3788C479.813 50.2742 478.78 53.0921 476.687 55.1085C474.594 57.125 471.752 58.0686 468.871 57.6679L464.931 57.1379L461.326 66.8712L464.672 69.0299C467.114 70.6069 468.664 73.1792 468.936 76.0746C469.207 78.97 468.16 81.775 466.068 83.7914L463.2 86.5447L468.561 95.4249L472.333 94.1581C475.085 93.2404 478.056 93.6152 480.498 95.2051C482.939 96.795 484.477 99.3673 484.735 102.263L485.097 106.231L485.084 106.179Z" fill="black"/>
<path d="M506.187 85.1406C512.453 78.8711 512.453 68.7061 506.187 62.4366C499.921 56.167 489.762 56.1671 483.496 62.4366C477.23 68.7061 477.23 78.871 483.496 85.1406C489.762 91.4101 499.921 91.4101 506.187 85.1406Z" fill="black"/>
<path d="M494.837 90.4742C485.639 90.4742 478.159 82.99 478.159 73.7866C478.159 64.5833 485.639 57.0991 494.837 57.0991C504.035 57.0991 511.515 64.5833 511.515 73.7866C511.515 82.99 504.035 90.4742 494.837 90.4742ZM494.837 58.3788C486.337 58.3788 479.425 65.2942 479.425 73.7996C479.425 82.3049 486.337 89.2203 494.837 89.2203C503.337 89.2203 510.249 82.3049 510.249 73.7996C510.249 65.2942 503.337 58.3788 494.837 58.3788Z" fill="black"/>
<path d="M502.222 81.1738C506.298 77.0951 506.298 70.4821 502.222 66.4034C498.146 62.3246 491.536 62.3247 487.46 66.4034C483.384 70.4821 483.384 77.095 487.46 81.1738C491.536 85.2525 498.146 85.2525 502.222 81.1738Z" fill="white"/>
<path d="M494.837 84.8642C488.726 84.8642 483.766 79.9006 483.766 73.7866C483.766 67.6726 488.726 62.709 494.837 62.709C500.947 62.709 505.908 67.6726 505.908 73.7866C505.908 79.9006 500.947 84.8642 494.837 84.8642ZM494.837 63.9757C489.424 63.9757 485.032 68.3835 485.032 73.7866C485.032 79.1897 489.437 83.5975 494.837 83.5975C500.237 83.5975 504.642 79.1897 504.642 73.7866C504.642 68.3835 500.237 63.9757 494.837 63.9757Z" fill="black"/>
<path d="M200.811 397.959L198.098 396.175C194.662 393.913 189.998 395.439 188.59 399.316L187.479 402.367C183.009 401.785 183.771 401.889 179.301 401.294L179.004 398.05C178.63 393.939 174.534 391.263 170.62 392.569L167.532 393.603C165.194 389.738 165.595 390.397 163.269 386.533L165.621 384.283C168.592 381.427 168.14 376.554 164.677 374.304L161.952 372.534C163.515 368.294 163.244 369.031 164.82 364.791L168.036 365.23C172.119 365.786 175.645 362.374 175.245 358.276L174.922 355.045C179.211 353.623 178.475 353.868 182.751 352.459L184.417 355.252C186.536 358.793 191.393 359.427 194.351 356.544L196.677 354.282C200.449 356.751 199.803 356.324 203.588 358.793L202.451 361.844C201.005 365.709 203.537 369.897 207.632 370.427L210.861 370.84C211.288 375.339 211.21 374.563 211.637 379.061L208.549 380.07C204.635 381.349 202.929 385.951 205.074 389.467L206.766 392.246C203.524 395.387 204.079 394.844 200.837 397.972L200.811 397.959Z" fill="white"/>
<path d="M187.466 403C187.466 403 187.414 403 187.388 403L179.211 401.927C178.914 401.889 178.694 401.656 178.668 401.359L178.371 398.114C178.216 396.356 177.273 394.779 175.787 393.823C174.302 392.853 172.493 392.621 170.814 393.176L167.726 394.211C167.442 394.301 167.132 394.198 166.99 393.939L162.727 386.868C162.572 386.61 162.623 386.287 162.83 386.08L165.181 383.831C166.46 382.603 167.093 380.897 166.925 379.126C166.757 377.368 165.814 375.804 164.328 374.834L161.603 373.063C161.357 372.908 161.254 372.585 161.357 372.314L164.225 364.571C164.328 364.287 164.613 364.119 164.897 364.157L168.114 364.597C169.871 364.83 171.602 364.261 172.881 363.033C174.16 361.805 174.78 360.086 174.612 358.328L174.289 355.096C174.263 354.799 174.444 354.528 174.715 354.437L182.544 351.852C182.828 351.761 183.138 351.878 183.28 352.123L184.947 354.915C185.851 356.441 187.388 357.436 189.132 357.669C190.889 357.901 192.62 357.32 193.886 356.092L196.212 353.83C196.418 353.623 196.754 353.597 197 353.752L203.911 358.263C204.156 358.431 204.26 358.741 204.156 359.013L203.02 362.063C202.4 363.718 202.567 365.541 203.485 367.053C204.402 368.565 205.926 369.561 207.683 369.793L210.913 370.207C211.21 370.246 211.43 370.478 211.468 370.776L212.244 378.997C212.269 379.294 212.088 379.565 211.804 379.656L208.717 380.664C207.037 381.207 205.72 382.474 205.1 384.141C204.479 385.796 204.66 387.618 205.578 389.131L207.27 391.91C207.425 392.168 207.386 392.491 207.167 392.698L201.237 398.424C201.017 398.631 200.694 398.657 200.449 398.502L197.736 396.718C196.263 395.749 194.455 395.503 192.762 396.059C191.083 396.615 189.765 397.881 189.158 399.549L188.047 402.6C187.957 402.845 187.711 403.013 187.453 403.013L187.466 403ZM179.87 400.738L187.039 401.682L187.982 399.097C188.719 397.067 190.321 395.516 192.375 394.844C194.429 394.172 196.638 394.456 198.434 395.645L200.72 397.158L205.926 392.129L204.492 389.79C203.368 387.941 203.149 385.731 203.898 383.702C204.647 381.672 206.249 380.134 208.303 379.462L210.913 378.609L210.228 371.396L207.502 371.047C205.358 370.776 203.498 369.561 202.374 367.712C201.263 365.864 201.056 363.64 201.805 361.624L202.761 359.052L196.702 355.096L194.739 357.009C193.189 358.522 191.083 359.22 188.938 358.935C186.794 358.651 184.934 357.436 183.823 355.575L182.415 353.222L175.542 355.497L175.813 358.224C176.02 360.37 175.258 362.464 173.707 363.964C172.157 365.463 170.038 366.161 167.894 365.864L165.168 365.502L162.662 372.288L164.962 373.774C166.77 374.951 167.933 376.851 168.127 379.009C168.333 381.155 167.558 383.249 165.995 384.736L164.018 386.636L167.765 392.84L170.361 391.974C172.403 391.289 174.612 391.574 176.42 392.75C178.229 393.926 179.379 395.839 179.572 397.998L179.818 400.738H179.87Z" fill="black"/>
<path d="M186.781 386.713C191.911 386.713 196.069 382.552 196.069 377.419C196.069 372.286 191.911 368.125 186.781 368.125C181.651 368.125 177.492 372.286 177.492 377.419C177.492 382.552 181.651 386.713 186.781 386.713Z" fill="white"/>
<path d="M186.781 387.347C181.316 387.347 176.859 382.887 176.859 377.419C176.859 371.952 181.316 367.492 186.781 367.492C192.245 367.492 196.702 371.952 196.702 377.419C196.702 382.887 192.245 387.347 186.781 387.347ZM186.781 368.759C182.014 368.759 178.125 372.65 178.125 377.419C178.125 382.189 182.014 386.08 186.781 386.08C191.548 386.08 195.436 382.189 195.436 377.419C195.436 372.65 191.548 368.759 186.781 368.759Z" fill="black"/>
<path d="M89.0904 218.83L77.8383 210.376L75.2417 153.114L99.1411 185.946L89.0904 218.83Z" fill="black"/>
<path d="M89.0906 219.463C88.9614 219.463 88.8193 219.424 88.716 219.334L77.4639 210.893C77.3089 210.777 77.2184 210.609 77.2055 210.415L74.6089 153.14C74.6089 152.855 74.7639 152.61 75.0352 152.519C75.2936 152.429 75.5907 152.519 75.7586 152.739L99.658 185.571C99.7743 185.726 99.813 185.933 99.7485 186.127L89.6978 218.998C89.6332 219.192 89.4911 219.347 89.2844 219.411C89.2198 219.437 89.1552 219.437 89.0906 219.437V219.463ZM78.4586 210.066L88.7547 217.796L98.4566 186.088L75.9783 155.208L78.4586 210.079V210.066Z" fill="black"/>
<path d="M153.748 171.714L149.175 158.4L95.498 138.352L119.397 171.197L153.748 171.714Z" fill="black"/>
<path d="M153.748 172.348L119.385 171.831C119.191 171.831 118.997 171.727 118.881 171.572L94.9815 138.74C94.8136 138.52 94.8265 138.21 94.9815 137.99C95.1495 137.77 95.4466 137.68 95.7049 137.783L149.382 157.832C149.563 157.896 149.692 158.039 149.756 158.219L154.329 171.52C154.394 171.714 154.368 171.934 154.239 172.102C154.123 172.27 153.929 172.361 153.722 172.361L153.748 172.348ZM119.721 170.577L152.857 171.081L148.671 158.905L97.2423 139.696L119.721 170.577Z" fill="black"/>
<path d="M97.7846 193.043L54.236 143.355C36.5505 123.177 28.2826 97.5191 32.3261 72.8174L32.4553 72.8432C56.3805 77.1735 78.4713 91.8057 91.8033 114.103L126.49 172.141L97.7846 193.055V193.043Z" fill="#1490FE"/>
<path d="M97.7847 193.676C97.6039 193.676 97.4359 193.598 97.3067 193.456L53.7582 143.768C35.7109 123.177 27.6756 97.2734 31.6933 72.7139C31.7191 72.5459 31.8095 72.4037 31.9516 72.3003C32.0937 72.1969 32.2617 72.1581 32.4296 72.1969L32.5588 72.2227C57.4658 76.7339 79.2466 91.8832 92.3331 113.78L127.019 171.818C127.187 172.102 127.11 172.464 126.852 172.658L98.1464 193.572C98.0302 193.65 97.901 193.689 97.7718 193.689L97.7847 193.676ZM32.8559 73.5541C29.1354 97.5578 37.0803 122.815 54.7142 142.941L97.8752 192.202L125.637 171.973L91.2479 114.439C78.4327 93.0078 57.1687 78.1429 32.843 73.567L32.8559 73.5541Z" fill="black"/>
<path d="M59.2098 126.06C56.0964 121.781 57.0395 115.784 61.3156 112.668C65.5916 109.553 71.5858 110.497 74.6992 114.775C77.8126 119.054 76.8695 125.052 72.5935 128.167C68.3174 131.282 62.3232 130.338 59.2098 126.06Z" fill="white"/>
<path d="M66.9612 130.636C63.809 130.636 60.6956 129.175 58.6933 126.435C55.3732 121.885 56.3808 115.473 60.9411 112.164C63.1502 110.562 65.8502 109.902 68.5372 110.329C71.2372 110.755 73.6013 112.203 75.2032 114.414C78.5233 118.964 77.5156 125.375 72.9554 128.684C71.1468 130.002 69.041 130.636 66.9612 130.636ZM66.9224 111.466C65.0492 111.466 63.2277 112.061 61.6775 113.186C57.6856 116.094 56.8072 121.704 59.7138 125.698C62.6205 129.692 68.2272 130.571 72.219 127.663C76.2109 124.754 77.0893 119.144 74.1827 115.15C72.7745 113.211 70.7075 111.945 68.3434 111.583C67.8784 111.505 67.4004 111.466 66.9353 111.466H66.9224Z" fill="black"/>
<path d="M123.917 174.006L100.001 191.43L106.009 199.685L129.924 182.261L123.917 174.006Z" fill="white"/>
<path d="M106.014 200.307C105.82 200.307 105.627 200.216 105.497 200.048L99.4902 191.789C99.3869 191.659 99.3481 191.478 99.374 191.323C99.3998 191.155 99.4902 191.013 99.6323 190.91L123.545 173.485C123.674 173.382 123.855 173.343 124.01 173.369C124.178 173.395 124.32 173.485 124.423 173.628L130.43 181.887C130.637 182.172 130.572 182.559 130.288 182.766L106.376 200.191C106.26 200.268 106.13 200.307 106.001 200.307H106.014ZM100.885 191.556L106.156 198.795L129.048 182.107L123.777 174.868L100.885 191.556Z" fill="black"/>
<path d="M35.6723 111.712C35.6077 111.712 35.5431 111.686 35.5043 111.622C35.4397 111.531 35.4527 111.402 35.556 111.324L68.0979 87.6049C68.1883 87.5403 68.3175 87.5532 68.395 87.6566C68.4596 87.7471 68.4467 87.8764 68.3434 87.9539L35.8015 111.673C35.8015 111.673 35.7239 111.712 35.6723 111.712Z" fill="black"/>
<path d="M124.771 234.987C124.461 234.987 124.19 234.755 124.151 234.445C123.144 226.883 121.141 219.489 118.196 212.457C118.067 212.134 118.209 211.759 118.532 211.63C118.855 211.488 119.229 211.643 119.359 211.966C122.343 219.101 124.384 226.598 125.404 234.277C125.456 234.626 125.211 234.936 124.862 234.987C124.836 234.987 124.81 234.987 124.771 234.987Z" fill="black"/>
<path d="M116.194 208.036C115.987 208.036 115.78 207.933 115.651 207.739L112.912 203.344C112.731 203.047 112.822 202.659 113.119 202.478C113.416 202.297 113.804 202.388 113.985 202.685L116.723 207.08C116.904 207.377 116.814 207.765 116.517 207.946C116.413 208.011 116.297 208.036 116.181 208.036H116.194Z" fill="black"/>
<path d="M127.097 253.614C126.929 253.614 126.774 253.549 126.645 253.433C125.263 252.05 124.41 249.982 124.229 247.59C124.074 245.509 124.397 243.454 124.707 241.463C124.759 241.114 125.095 240.882 125.431 240.933C125.779 240.985 126.012 241.308 125.96 241.657C125.65 243.57 125.34 245.548 125.495 247.487C125.65 249.568 126.386 251.352 127.549 252.528C127.795 252.774 127.795 253.174 127.549 253.42C127.42 253.536 127.265 253.601 127.097 253.601V253.614Z" fill="black"/>
<path d="M143.232 212.16C143.064 212.16 142.896 212.096 142.78 211.966C137.315 206.227 132.264 200.01 127.756 193.495C127.562 193.211 127.626 192.81 127.911 192.616C128.195 192.422 128.595 192.487 128.789 192.771C133.259 199.234 138.271 205.4 143.684 211.087C143.93 211.346 143.917 211.747 143.658 211.979C143.542 212.096 143.374 212.147 143.219 212.147L143.232 212.16Z" fill="black"/>
<path d="M155.066 218.391C154.988 218.391 154.898 218.378 154.82 218.339L149.059 215.87C148.736 215.728 148.594 215.366 148.723 215.043C148.865 214.72 149.227 214.577 149.55 214.707L155.311 217.176C155.634 217.318 155.776 217.68 155.647 218.003C155.544 218.248 155.311 218.391 155.066 218.391Z" fill="black"/>
<path d="M150.854 305.809C150.389 305.809 149.911 305.784 149.446 305.745C141.14 305.008 134.086 297.808 133.246 289.587C129.603 293.866 123.467 295.973 117.989 294.68C111.931 293.245 107.022 287.7 106.337 281.508C105.446 273.585 110.678 266.475 116.465 259.987C116.698 259.728 117.098 259.702 117.356 259.935C117.615 260.168 117.641 260.568 117.408 260.827C111.814 267.109 106.763 273.934 107.59 281.366C108.223 287.054 112.719 292.134 118.287 293.452C123.842 294.771 130.146 292.25 133.272 287.467C133.427 287.235 133.711 287.131 133.983 287.209C134.254 287.286 134.435 287.545 134.435 287.816C134.37 295.986 141.437 303.78 149.575 304.491C157.714 305.215 166.034 298.765 167.39 290.712C167.442 290.389 167.726 290.182 168.049 290.182C173.694 290.479 179.353 287.894 182.828 283.434C186.303 278.975 187.427 272.848 185.747 267.445C185.644 267.109 185.825 266.76 186.161 266.656C186.497 266.553 186.845 266.734 186.949 267.07C188.745 272.861 187.543 279.427 183.81 284.21C180.205 288.85 174.379 291.591 168.527 291.462C166.873 299.553 159.083 305.796 150.867 305.796L150.854 305.809Z" fill="black"/>
<path d="M196.173 234.509C195.953 234.509 195.746 234.393 195.617 234.186C195.449 233.889 195.553 233.501 195.85 233.32C200.048 230.916 202.232 225.396 200.836 220.769C199.428 216.141 194.558 212.781 189.726 213.104C188.667 213.181 187.052 213.285 186.38 212.031C186.006 211.32 186.174 210.519 186.29 209.937C187.22 205.568 186.936 202.233 185.45 199.751C183.461 196.429 179.03 194.671 174.676 195.46C169.974 196.313 166.408 199.596 164.251 202.194C164.031 202.466 163.631 202.504 163.36 202.272C163.088 202.052 163.05 201.651 163.282 201.38C165.582 198.614 169.38 195.137 174.457 194.219C179.314 193.327 184.288 195.343 186.548 199.105C188.215 201.884 188.538 205.503 187.543 210.208C187.453 210.648 187.349 211.139 187.504 211.449C187.776 211.953 188.667 211.928 189.649 211.863C195.036 211.488 200.488 215.249 202.051 220.42C203.614 225.59 201.172 231.743 196.483 234.432C196.379 234.483 196.276 234.509 196.173 234.509Z" fill="black"/>
<path d="M138.607 229.559C138.401 229.559 138.194 229.455 138.065 229.261C132.432 220.278 126.968 211.023 121.826 201.755C121.658 201.444 121.761 201.07 122.072 200.889C122.382 200.721 122.756 200.824 122.937 201.134C128.066 210.389 133.517 219.618 139.137 228.576C139.318 228.874 139.227 229.261 138.943 229.442C138.84 229.507 138.724 229.533 138.607 229.533V229.559Z" fill="black"/>
<path d="M147.806 243.545C147.599 243.545 147.405 243.441 147.276 243.26L141.928 235.259C141.734 234.962 141.811 234.574 142.096 234.38C142.38 234.186 142.78 234.264 142.974 234.548L148.322 242.549C148.516 242.834 148.439 243.234 148.155 243.428C148.051 243.506 147.922 243.532 147.806 243.532V243.545Z" fill="black"/>
<path d="M28.3874 212.862C25.9717 212.862 23.9951 210.898 23.9951 208.468C23.9951 206.038 25.9587 204.073 28.3874 204.073C30.8161 204.073 32.7798 206.038 32.7798 208.468C32.7798 210.898 30.8161 212.862 28.3874 212.862ZM28.3874 205.34C26.6693 205.34 25.2611 206.748 25.2611 208.468C25.2611 210.187 26.6693 211.596 28.3874 211.596C30.1056 211.596 31.5137 210.187 31.5137 208.468C31.5137 206.748 30.1056 205.34 28.3874 205.34Z" fill="black"/>
<path d="M357.719 397.493C355.304 397.493 353.327 395.529 353.327 393.098C353.327 390.668 355.291 388.704 357.719 388.704C360.148 388.704 362.112 390.668 362.112 393.098C362.112 395.529 360.148 397.493 357.719 397.493ZM357.719 389.97C356.001 389.97 354.593 391.379 354.593 393.098C354.593 394.818 356.001 396.227 357.719 396.227C359.438 396.227 360.846 394.818 360.846 393.098C360.846 391.379 359.438 389.97 357.719 389.97Z" fill="black"/>
<path d="M259.706 279.595C257.291 279.595 255.314 277.63 255.314 275.2C255.314 272.77 257.278 270.805 259.706 270.805C262.135 270.805 264.099 272.77 264.099 275.2C264.099 277.63 262.135 279.595 259.706 279.595ZM259.706 272.072C257.988 272.072 256.58 273.481 256.58 275.2C256.58 276.919 257.988 278.328 259.706 278.328C261.424 278.328 262.833 276.919 262.833 275.2C262.833 273.481 261.424 272.072 259.706 272.072Z" fill="black"/>
<path d="M284.639 84.0757C280.764 84.0757 277.599 80.9218 277.599 77.031C277.599 73.1403 280.751 69.9863 284.639 69.9863C288.528 69.9863 291.68 73.1403 291.68 77.031C291.68 80.9218 288.528 84.0757 284.639 84.0757ZM284.639 71.2531C281.461 71.2531 278.865 73.8512 278.865 77.031C278.865 80.2108 281.448 82.809 284.639 82.809C287.83 82.809 290.414 80.2238 290.414 77.031C290.414 73.8383 287.83 71.2531 284.639 71.2531Z" fill="black"/>
<path d="M72.219 397.054C72.219 397.054 72.1027 397.054 72.0381 397.028C71.7023 396.925 71.5085 396.576 71.6118 396.24L81.262 363.097C81.3524 362.761 81.7012 362.567 82.0371 362.658L103.559 368.5L113.713 348.478C113.817 348.284 114.011 348.155 114.217 348.129L136.14 346.229C136.489 346.203 136.799 346.462 136.825 346.811C136.851 347.16 136.592 347.47 136.243 347.496L114.669 349.357L104.438 369.522C104.309 369.793 103.999 369.922 103.715 369.845L82.2955 364.028L72.8132 396.563C72.7357 396.834 72.4774 397.015 72.2061 397.015L72.219 397.054Z" fill="black"/>
<path d="M522.448 216.407L515.771 209.725L509.093 216.407L515.771 223.088L522.448 216.407Z" fill="black"/>
<path d="M130.561 59.8455L123.884 53.1641L117.206 59.8455L123.884 66.5269L130.561 59.8455Z" fill="black"/>
<path d="M123.893 67.1685C123.725 67.1685 123.57 67.1039 123.441 66.9875L116.762 60.3048C116.517 60.0592 116.517 59.6585 116.762 59.4129L123.441 52.7301C123.687 52.4845 124.087 52.4845 124.333 52.7301L131.011 59.4129C131.257 59.6585 131.257 60.0592 131.011 60.3048L124.333 66.9875C124.216 67.1039 124.048 67.1685 123.88 67.1685H123.893ZM118.106 59.8523L123.893 65.6432L129.681 59.8523L123.893 54.0615L118.106 59.8523Z" fill="black"/>
<path d="M446.341 398.683C446.005 398.683 445.734 398.424 445.708 398.088C445.682 397.739 445.953 397.442 446.302 397.416C447.943 397.312 449.57 397.028 451.159 396.601C451.495 396.511 451.844 396.705 451.935 397.041C452.025 397.377 451.831 397.726 451.495 397.817C449.842 398.269 448.124 398.566 446.392 398.683C446.38 398.683 446.367 398.683 446.354 398.683H446.341ZM441.303 398.515C441.303 398.515 441.251 398.515 441.212 398.515C439.494 398.282 437.802 397.881 436.174 397.312C435.838 397.196 435.67 396.834 435.786 396.511C435.903 396.175 436.264 396.007 436.587 396.123C438.138 396.666 439.739 397.054 441.367 397.274C441.716 397.325 441.961 397.636 441.91 397.985C441.871 398.308 441.6 398.527 441.29 398.527L441.303 398.515ZM456.03 396.007C455.797 396.007 455.578 395.878 455.461 395.658C455.306 395.348 455.423 394.96 455.733 394.805C457.192 394.055 458.588 393.163 459.867 392.129C460.138 391.909 460.538 391.961 460.758 392.233C460.978 392.504 460.926 392.905 460.655 393.124C459.298 394.197 457.838 395.154 456.301 395.929C456.211 395.981 456.107 395.994 456.017 395.994L456.03 396.007ZM431.82 395.193C431.704 395.193 431.601 395.167 431.497 395.102C430.012 394.21 428.617 393.176 427.351 392.013C427.092 391.78 427.079 391.379 427.312 391.121C427.544 390.862 427.945 390.849 428.203 391.082C429.417 392.194 430.748 393.176 432.156 394.029C432.453 394.21 432.557 394.598 432.376 394.895C432.26 395.089 432.053 395.205 431.833 395.205L431.82 395.193ZM463.884 389.738C463.742 389.738 463.6 389.686 463.484 389.596C463.212 389.376 463.174 388.975 463.406 388.704C464.466 387.437 465.396 386.067 466.171 384.632C466.339 384.322 466.726 384.205 467.023 384.373C467.334 384.541 467.45 384.929 467.282 385.227C466.468 386.739 465.486 388.187 464.375 389.518C464.246 389.673 464.065 389.751 463.884 389.751V389.738ZM424.405 388.406C424.211 388.406 424.018 388.316 423.888 388.148C422.868 386.752 421.989 385.239 421.279 383.675C421.137 383.352 421.279 382.977 421.589 382.835C421.912 382.693 422.286 382.835 422.429 383.145C423.113 384.632 423.94 386.067 424.909 387.398C425.116 387.683 425.051 388.07 424.767 388.277C424.651 388.355 424.521 388.393 424.392 388.393L424.405 388.406ZM468.651 380.883C468.651 380.883 468.535 380.883 468.47 380.858C468.134 380.754 467.941 380.405 468.044 380.069C468.509 378.505 468.832 376.876 468.974 375.235C469 374.886 469.323 374.627 469.659 374.666C470.008 374.692 470.266 375.002 470.227 375.351C470.072 377.07 469.749 378.789 469.245 380.444C469.168 380.715 468.91 380.896 468.638 380.896L468.651 380.883ZM420.245 379.255C419.961 379.255 419.69 379.061 419.625 378.764C419.251 377.083 419.031 375.351 418.992 373.619C418.992 373.516 419.018 373.412 419.057 373.335C419.018 373.244 418.992 373.154 418.992 373.05C418.992 371.318 419.16 369.586 419.509 367.893C419.574 367.557 419.909 367.324 420.258 367.402C420.594 367.466 420.827 367.802 420.749 368.151C420.426 369.754 420.258 371.396 420.258 373.05C420.258 373.154 420.232 373.244 420.194 373.322C420.232 373.399 420.258 373.503 420.258 373.593C420.297 375.235 420.491 376.889 420.852 378.479C420.93 378.815 420.71 379.164 420.374 379.242C420.323 379.242 420.284 379.255 420.232 379.255H420.245ZM469.543 370.879C469.22 370.879 468.948 370.633 468.91 370.31C468.729 368.681 468.38 367.053 467.876 365.501C467.773 365.165 467.954 364.816 468.277 364.7C468.612 364.597 468.961 364.778 469.078 365.101C469.607 366.742 469.982 368.449 470.163 370.168C470.201 370.517 469.956 370.827 469.607 370.866C469.581 370.866 469.556 370.866 469.543 370.866V370.879ZM421.628 363.834C421.55 363.834 421.46 363.821 421.382 363.782C421.059 363.64 420.917 363.278 421.046 362.955C421.718 361.365 422.571 359.84 423.552 358.418C423.746 358.134 424.147 358.056 424.431 358.263C424.715 358.457 424.793 358.857 424.586 359.142C423.643 360.499 422.842 361.947 422.196 363.446C422.093 363.692 421.86 363.834 421.615 363.834H421.628ZM466.442 361.313C466.222 361.313 466.003 361.197 465.887 360.99C465.073 359.568 464.117 358.211 463.032 356.97C462.799 356.712 462.825 356.311 463.096 356.078C463.355 355.846 463.755 355.872 463.988 356.143C465.124 357.448 466.132 358.87 466.985 360.37C467.153 360.667 467.049 361.055 466.752 361.236C466.649 361.288 466.545 361.313 466.442 361.313ZM427.351 355.574C427.183 355.574 427.015 355.51 426.898 355.38C426.653 355.122 426.666 354.721 426.924 354.488C428.177 353.299 429.547 352.226 431.006 351.309C431.304 351.128 431.691 351.205 431.872 351.503C432.053 351.8 431.975 352.188 431.678 352.381C430.296 353.26 428.978 354.282 427.803 355.406C427.686 355.523 427.518 355.587 427.363 355.587L427.351 355.574ZM459.828 353.752C459.699 353.752 459.557 353.713 459.44 353.622C458.135 352.627 456.727 351.761 455.242 351.05C454.932 350.895 454.79 350.52 454.945 350.21C455.1 349.9 455.474 349.757 455.784 349.913C457.335 350.662 458.82 351.58 460.19 352.627C460.474 352.834 460.525 353.235 460.306 353.519C460.177 353.687 459.996 353.765 459.802 353.765L459.828 353.752ZM435.864 350.223C435.605 350.223 435.373 350.068 435.27 349.809C435.153 349.486 435.308 349.111 435.644 348.995C437.259 348.387 438.938 347.948 440.657 347.676C441.005 347.625 441.328 347.857 441.38 348.206C441.432 348.555 441.199 348.879 440.85 348.93C439.223 349.189 437.621 349.602 436.096 350.184C436.019 350.21 435.954 350.223 435.877 350.223H435.864ZM450.785 349.383C450.785 349.383 450.681 349.383 450.63 349.37C449.041 348.969 447.4 348.736 445.759 348.659C445.411 348.646 445.139 348.349 445.152 348C445.165 347.651 445.462 347.379 445.811 347.392C447.542 347.47 449.26 347.715 450.927 348.142C451.263 348.232 451.469 348.568 451.392 348.904C451.314 349.189 451.056 349.383 450.785 349.383Z" fill="black"/>
<path d="M262.484 399.652C258.647 399.652 255.831 398.656 254.113 396.653C247.563 389.001 258.854 369.948 269.486 355.302C284.135 335.138 307.234 309.971 334.531 284.429C334.789 284.196 335.19 284.209 335.422 284.455C335.655 284.713 335.642 285.114 335.396 285.347C279.123 337.994 245.341 384.451 255.081 395.813C260.52 402.159 279.64 396.679 307.531 380.767C336.094 364.48 370.922 339.132 405.596 309.402C440.269 279.672 470.641 249.115 491.091 223.366C511.076 198.225 519.409 180.155 513.97 173.808C508.479 167.397 489.089 173.032 460.784 189.267C460.487 189.435 460.099 189.332 459.918 189.035C459.751 188.737 459.854 188.35 460.151 188.169C489.463 171.352 508.919 165.962 514.926 172.981C520.881 179.935 512.768 198.109 492.073 224.142C471.571 249.955 441.148 280.564 406.41 310.346C371.672 340.127 336.779 365.527 308.151 381.853C287.597 393.577 271.94 399.613 262.484 399.613V399.652Z" fill="black"/>
<path d="M350.795 92.4905C353.12 102.495 352.694 114.84 352.694 114.84L343.638 118.356C343.638 118.356 338.083 141.196 373.079 134.203C379.875 132.846 399.563 117.89 399.563 117.89L383.996 113.444C383.996 113.444 382.51 90.8101 381.916 79.5645C373.738 83.3776 360.613 89.44 350.795 92.5034V92.4905Z" fill="white"/>
<path d="M361.143 136.167C354.386 136.167 349.4 134.526 346.26 131.256C341.196 125.982 342.94 118.523 343.018 118.2C343.07 117.993 343.212 117.838 343.405 117.761L352.074 114.4C352.125 112.164 352.229 101.409 350.175 92.6196C350.097 92.2964 350.291 91.9733 350.601 91.8699C360.755 88.703 374.862 82.1236 381.644 78.9697C381.838 78.8792 382.058 78.8921 382.239 78.9955C382.42 79.0989 382.536 79.2928 382.549 79.4997C383.091 89.75 384.396 109.708 384.603 112.926L399.743 117.257C399.976 117.321 400.144 117.515 400.195 117.748C400.234 117.98 400.144 118.226 399.963 118.368C399.149 118.989 380.081 133.427 373.222 134.797C368.726 135.702 364.695 136.142 361.156 136.142L361.143 136.167ZM344.193 118.821C343.935 120.243 343.16 126.201 347.191 130.389C351.647 135.03 360.316 136.103 372.963 133.582C378.673 132.445 394.059 121.199 398.167 118.149L383.828 114.051C383.569 113.973 383.388 113.754 383.375 113.482C383.363 113.262 381.954 91.9216 381.334 80.5208C374.384 83.7523 361.311 89.7888 351.544 92.9169C353.727 102.779 353.34 114.749 353.327 114.865C353.327 115.124 353.159 115.344 352.926 115.434L344.193 118.834V118.821Z" fill="black"/>
<path d="M329.363 29.5016C326.172 30.2643 322.981 27.0327 322.917 23.6073C322.852 20.1819 325.255 17.0797 328.2 15.5803C331.146 14.0808 334.543 13.8999 337.863 13.4345C336.61 10.1126 338.199 6.11841 340.951 3.99853C343.703 1.87866 347.346 1.36162 350.743 1.78818C352.965 2.05963 355.213 2.73178 356.97 4.1795C358.727 5.62722 359.928 7.96683 359.825 10.4616C362.783 6.72593 367.576 4.20535 372.085 5.29114C376.593 6.37693 380.004 11.8834 380.34 15.6837C382.536 12.9821 385.404 10.7718 388.789 10.9527C395.493 11.3147 397.018 17.028 393.995 24.37C397.573 22.612 402.896 24.1502 404.588 29.3465C405.854 33.2114 404.433 39.3642 401.746 42.3889C401.281 42.9189 400.596 43.423 399.769 43.8883C398.723 49.6275 397.418 55.6381 395.442 63.2257C394.021 68.7063 391.54 74.7686 388.634 79.7581C387.264 82.1106 386.205 83.2481 383.453 84.5278C383.298 82.1494 380.831 80.9731 380.443 78.6077C379.965 75.6993 381.838 73.1399 380.094 70.5677C376.761 65.6558 374.488 60.2785 373.415 54.7591C372.537 50.2221 372.511 45.4524 374.643 41.2772C375.405 39.7908 376.49 38.3947 377.808 37.1797C377.214 36.0034 376.761 34.8013 376.387 33.625C374.423 36.9987 372.989 39.3254 368.067 40.9412C364.476 42.1174 360.2 40.6956 358.998 37.2572C358.236 40.7214 352.862 45.5945 349.477 45.9435C346.106 46.2926 344.827 44.7285 343.47 41.4841C340.473 44.1468 338.225 46.8484 335.164 48.0117C330.487 49.7826 324.699 46.8613 323.149 41.9365C321.599 37.0117 324.583 31.0269 329.35 29.5275L329.363 29.5016Z" fill="#1490FE"/>
<path d="M383.453 85.1354C383.337 85.1354 383.234 85.1096 383.13 85.045C382.949 84.9415 382.833 84.7477 382.82 84.5408C382.756 83.4938 382.123 82.6795 381.451 81.8134C380.753 80.9086 380.03 79.965 379.81 78.6724C379.603 77.4057 379.81 76.2552 379.978 75.1307C380.236 73.5666 380.456 72.2223 379.552 70.878C376.141 65.8756 373.868 60.4725 372.782 54.8368C371.71 49.2786 372.136 44.7415 374.074 40.9413C374.798 39.5323 375.818 38.1751 377.033 36.9988C376.748 36.3913 376.477 35.7579 376.232 35.0858C374.591 37.8132 372.86 39.9848 368.261 41.4971C364.67 42.6734 360.884 41.4842 359.089 38.8085C357.422 42.2856 352.772 46.2022 349.542 46.5253C346.118 46.8743 344.594 45.3878 343.251 42.4924C342.747 42.9578 342.269 43.4102 341.791 43.8626C339.75 45.8015 337.812 47.637 335.396 48.5547C333.058 49.4466 330.319 49.2657 327.864 48.0765C325.294 46.8356 323.356 44.6381 322.555 42.0659C321.16 37.6193 323.162 32.4618 326.87 29.9671C326.237 29.7603 325.617 29.4371 325.035 28.9847C323.369 27.6921 322.31 25.6239 322.271 23.5816C322.193 19.665 325.048 16.4335 327.903 14.9858C330.409 13.7061 333.213 13.3571 335.926 13.0081C336.287 12.9564 336.662 12.9176 337.024 12.8659C336.21 9.62148 337.631 5.70489 340.551 3.45576C343.147 1.45222 346.79 0.612027 350.808 1.11614C353.521 1.45222 355.73 2.30534 357.358 3.64965C358.972 4.98103 360.019 6.84238 360.342 8.84592C363.714 5.31711 368.235 3.6755 372.214 4.63203C376.4 5.64026 379.784 10.1902 380.727 14.2102C383.285 11.4441 385.998 10.1385 388.801 10.2807C391.631 10.4358 393.762 11.5216 394.964 13.4217C396.436 15.7614 396.462 19.2126 395.054 23.2455C396.733 22.806 398.607 22.9353 400.286 23.6462C402.598 24.6157 404.33 26.5546 405.156 29.0881C406.474 33.1081 405.079 39.4936 402.185 42.7509C401.72 43.268 401.087 43.7721 400.312 44.2374C399.188 50.3385 397.832 56.4138 396.023 63.3292C394.563 68.952 392.057 75.0273 389.15 80.0167C387.781 82.3693 386.67 83.6489 383.699 85.045C383.608 85.0837 383.518 85.1096 383.427 85.1096L383.453 85.1354ZM376.387 32.9659C376.387 32.9659 376.438 32.9659 376.451 32.9659C376.697 32.9918 376.903 33.1598 376.981 33.4054C377.394 34.6851 377.846 35.8226 378.363 36.8696C378.492 37.1281 378.428 37.4254 378.221 37.6193C376.955 38.7697 375.909 40.114 375.185 41.5359C373.377 45.0776 372.989 49.3561 374.01 54.617C375.069 60.0848 377.278 65.3198 380.585 70.1929C381.787 71.9509 381.49 73.683 381.218 75.3633C381.05 76.3845 380.869 77.4315 381.05 78.4915C381.205 79.4738 381.812 80.2365 382.446 81.0637C383.04 81.8264 383.634 82.6019 383.918 83.5843C386.05 82.4727 386.941 81.3869 388.065 79.4351C390.907 74.5361 393.362 68.5642 394.809 63.0578C396.63 56.0648 397.999 49.9378 399.123 43.7721C399.162 43.5911 399.278 43.4231 399.433 43.3326C400.209 42.9061 400.829 42.4278 401.242 41.9624C403.839 39.0412 405.131 33.121 403.955 29.5405C403.244 27.356 401.759 25.7015 399.795 24.8613C397.974 24.0987 395.894 24.1245 394.24 24.9388C394.008 25.0552 393.723 25.0164 393.53 24.8354C393.336 24.6545 393.271 24.3701 393.375 24.1374C395.106 19.9235 395.287 16.3818 393.878 14.1585C392.897 12.5945 391.153 11.7284 388.724 11.5992C386.024 11.457 383.35 12.9693 380.805 16.0974C380.637 16.2913 380.379 16.3818 380.133 16.3042C379.888 16.2267 379.707 16.0069 379.694 15.7614C379.384 12.3618 376.283 6.97164 371.917 5.92463C367.99 4.98103 363.429 6.91994 360.303 10.8753C360.135 11.0951 359.851 11.1726 359.593 11.0692C359.334 10.9787 359.166 10.7202 359.179 10.4487C359.257 8.2901 358.249 6.07974 356.544 4.67081C355.097 3.48161 353.107 2.71897 350.64 2.40875C346.958 1.95634 343.651 2.69312 341.313 4.50277C338.587 6.59679 337.36 10.3453 338.432 13.2149C338.496 13.3959 338.484 13.5898 338.38 13.7578C338.277 13.9259 338.122 14.0293 337.928 14.068C337.308 14.1585 336.688 14.2361 336.068 14.3136C333.342 14.6626 330.771 14.9858 328.459 16.1621C325.953 17.4417 323.459 20.2338 323.524 23.6075C323.55 25.2749 324.428 26.9812 325.798 28.0411C326.857 28.8684 328.071 29.1786 329.195 28.9071C329.531 28.8296 329.867 29.0235 329.957 29.3596C330.048 29.6827 329.867 30.0317 329.544 30.1351C325.126 31.5311 322.322 37.1798 323.756 41.7556C324.467 43.9918 326.159 45.9178 328.407 47.0036C330.539 48.0377 332.916 48.1928 334.931 47.4302C337.114 46.6029 338.871 44.9354 340.899 42.9965C341.584 42.3502 342.282 41.6781 343.031 41.0188C343.186 40.8896 343.393 40.825 343.586 40.8767C343.78 40.9154 343.948 41.0576 344.026 41.2515C345.305 44.315 346.39 45.6334 349.387 45.3232C352.526 45.0001 357.642 40.3338 358.352 37.1281C358.417 36.8567 358.649 36.6498 358.934 36.6369C359.218 36.624 359.476 36.792 359.567 37.0635C360.704 40.2821 364.76 41.3678 367.848 40.3467C372.653 38.7697 373.984 36.4818 375.818 33.3149C375.935 33.121 376.141 33.0047 376.361 33.0047L376.387 32.9659Z" fill="black"/>
<path d="M334.543 48.7226C334.543 48.5546 334.543 48.3736 334.543 48.1926C334.75 48.128 334.957 48.0634 335.163 47.9858C338.225 46.8225 340.473 44.108 343.47 41.4582C344.827 44.7026 346.093 46.2537 349.477 45.9176C352.849 45.5686 358.223 40.6955 358.998 37.2313C360.213 40.6567 364.476 42.0915 368.067 40.9153C372.989 39.2995 374.423 36.9728 376.387 33.5991C377.459 36.9857 379.203 40.5792 382.898 43.2161C384.254 44.1856 385.714 44.8448 387.225 45.2584C387.277 45.9176 387.342 46.5639 387.406 47.1844C387.665 49.4594 388.259 54.3971 387.729 59.3995C391.566 56.2197 394.731 56.7497 397.108 59.1539C399.485 61.5582 399.291 65.3713 396.966 67.7368C394.641 70.1023 390.545 71.0071 386.954 70.2445C386.024 76.2938 384.629 88.4185 380.43 93.7828C375.96 99.4832 368.054 103.128 359.877 103.271C351.699 103.4 343.47 100.026 338.484 94.4808C332.825 88.1858 331.559 79.8485 332.037 72.0412C332.515 64.2338 334.518 56.5299 334.543 48.7097V48.7226Z" fill="white"/>
<path d="M359.412 103.917C351.195 103.917 343.044 100.492 338.031 94.9205C333.058 89.3882 330.836 81.6843 331.417 72.0285C331.624 68.6031 332.128 65.1518 332.619 61.8169C333.252 57.5384 333.897 53.1048 333.91 48.7358C333.91 48.5548 333.91 48.3738 333.91 48.1929C333.91 47.9085 334.104 47.6758 334.363 47.5983C334.556 47.5466 334.737 47.4819 334.931 47.4173C337.114 46.59 338.871 44.9226 340.899 42.9837C341.584 42.3374 342.282 41.6652 343.031 41.006C343.186 40.8767 343.393 40.8121 343.586 40.8638C343.78 40.9026 343.948 41.0448 344.026 41.2387C345.305 44.3021 346.39 45.6206 349.387 45.3104C352.526 44.9872 357.642 40.3209 358.352 37.1152C358.417 36.8438 358.649 36.637 358.934 36.6241C359.218 36.6111 359.476 36.7792 359.567 37.0506C360.704 40.2692 364.76 41.355 367.848 40.3338C372.653 38.7569 373.984 36.4689 375.818 33.3021C375.947 33.0823 376.18 32.966 376.438 32.9918C376.684 33.0177 376.891 33.1857 376.968 33.4313C377.821 36.107 379.384 39.9719 383.246 42.7251C384.461 43.5912 385.856 44.2504 387.38 44.677C387.639 44.7416 387.82 44.9743 387.845 45.2328C387.91 45.9825 387.962 46.59 388.026 47.1329V47.288C388.285 49.4208 388.763 53.6218 388.466 58.0813C391.76 55.8968 394.951 56.1165 397.547 58.7534C400.118 61.3645 400.054 65.5267 397.405 68.2282C395.145 70.5291 391.217 71.6149 387.471 71.0332C387.406 71.4727 387.342 71.938 387.264 72.4292C386.282 79.1378 384.797 89.2848 380.921 94.2225C376.322 100.078 368.261 103.814 359.877 103.943C359.709 103.943 359.554 103.943 359.386 103.943L359.412 103.917ZM335.176 48.7228C335.164 53.1823 334.505 57.6547 333.872 61.985C333.381 65.294 332.877 68.7194 332.67 72.0931C332.102 81.3999 334.22 88.7936 338.962 94.0674C343.741 99.3929 351.544 102.65 359.412 102.65C359.567 102.65 359.722 102.65 359.877 102.65C367.886 102.521 375.573 98.9793 379.939 93.4082C383.608 88.7289 385.12 78.3881 386.037 72.2095C386.14 71.4727 386.244 70.7876 386.347 70.1542C386.373 69.9862 386.463 69.8311 386.618 69.7277C386.76 69.6242 386.941 69.5984 387.109 69.6243C390.649 70.374 394.434 69.4304 396.54 67.2976C398.71 65.0872 398.775 61.7135 396.682 59.6066C394.24 57.1248 391.359 57.2282 388.156 59.8909C387.962 60.059 387.678 60.0848 387.458 59.9556C387.225 59.8392 387.096 59.5936 387.122 59.3351C387.626 54.5137 387.083 49.7181 386.825 47.4044V47.2493C386.76 46.7969 386.709 46.3057 386.657 45.7369C385.158 45.2716 383.776 44.5994 382.562 43.7205C379.009 41.174 377.265 37.8003 376.258 35.0859C374.617 37.8133 372.886 39.9848 368.287 41.4972C364.695 42.6734 360.91 41.4842 359.115 38.8086C357.448 42.2857 352.797 46.2023 349.568 46.5254C346.144 46.8744 344.62 45.3879 343.276 42.4925C342.773 42.9578 342.295 43.4102 341.817 43.8626C339.775 45.8015 337.838 47.637 335.422 48.5548C335.357 48.5806 335.28 48.6065 335.202 48.6323C335.202 48.6582 335.202 48.6841 335.202 48.697L335.176 48.7228Z" fill="black"/>
<path d="M341.804 60.0589C341.7 59.1024 342.424 58.2234 343.444 58.1071C344.465 57.9908 345.369 58.6759 345.486 59.6453C345.589 60.6018 344.865 61.4808 343.845 61.5971C342.824 61.7135 341.92 61.0284 341.804 60.0589Z" fill="black"/>
<path d="M367.589 61.4422C367.486 60.4857 368.209 59.6067 369.23 59.4904C370.25 59.3741 371.154 60.0592 371.271 61.0286C371.374 61.9851 370.651 62.8641 369.63 62.9804C368.61 63.0968 367.705 62.4117 367.589 61.4422Z" fill="black"/>
<path d="M359.929 91.7149C359.128 91.7149 358.34 91.6115 357.552 91.4047C357.216 91.3142 357.009 90.9652 357.099 90.6291C357.19 90.293 357.539 90.0862 357.875 90.1767C360.91 90.9781 364.308 89.9182 366.349 87.5398C366.582 87.2683 366.982 87.2425 367.24 87.4751C367.512 87.7078 367.538 88.0956 367.305 88.367C365.484 90.4998 362.706 91.7149 359.916 91.7149H359.929Z" fill="black"/>
<path d="M355.536 82.0074C354.309 82.0074 353.004 81.7618 351.648 81.2706C350.924 81.0121 350.11 80.6501 349.516 79.978C348.754 79.1119 348.496 77.8193 348.78 76.4492C348.987 75.4797 349.413 74.6137 349.826 73.7606L350.02 73.3857C352.242 68.8357 353.405 63.7429 353.379 58.6759C353.379 58.3269 353.663 58.0425 354.012 58.0425C354.361 58.0425 354.645 58.3269 354.645 58.6759C354.671 63.9368 353.469 69.2235 351.157 73.9415L350.963 74.3293C350.563 75.1307 350.188 75.8933 350.02 76.7077C349.813 77.6771 349.981 78.5949 350.472 79.1507C350.873 79.616 351.506 79.8875 352.074 80.0814C353.728 80.676 355.278 80.8699 356.647 80.6631C358.21 80.4175 359.606 79.6031 360.368 78.4656C360.562 78.1813 360.949 78.1037 361.246 78.2976C361.53 78.4915 361.608 78.8793 361.414 79.1766C360.445 80.6243 358.779 81.6325 356.841 81.9298C356.415 81.9944 355.988 82.0332 355.536 82.0332V82.0074Z" fill="black"/>
<path d="M387.329 64.0143C387.329 64.0143 387.277 64.0143 387.252 64.0143C386.903 63.9626 386.657 63.6524 386.709 63.3034C386.993 61.1706 387.097 60.046 387.277 57.9779C387.303 57.6289 387.613 57.3703 387.962 57.4091C388.311 57.435 388.569 57.7452 388.531 58.0942C388.337 60.1753 388.233 61.3128 387.949 63.4714C387.91 63.7946 387.639 64.0273 387.329 64.0273V64.0143Z" fill="black"/>
<path d="M327.929 43.5265C327.929 43.5265 327.813 43.5007 327.774 43.4619C326.03 41.6652 325.384 38.8602 326.185 36.4818C326.224 36.3655 326.34 36.3138 326.456 36.3526C326.573 36.3914 326.624 36.5077 326.586 36.624C325.836 38.8602 326.443 41.4842 328.084 43.1775C328.162 43.2551 328.162 43.3973 328.084 43.4748C328.045 43.5136 327.994 43.5395 327.942 43.5395L327.929 43.5265Z" fill="black"/>
<path d="M396.165 41.1092C396.165 41.1092 396.049 41.0834 396.01 41.0317C395.933 40.9412 395.945 40.8119 396.023 40.7344C398.968 38.1362 400.118 33.7284 398.826 30.0187C398.788 29.9153 398.852 29.786 398.956 29.7472C399.059 29.7084 399.188 29.7731 399.227 29.8765C400.57 33.7414 399.369 38.343 396.307 41.0575C396.268 41.0963 396.217 41.1092 396.165 41.1092Z" fill="black"/>
<path d="M229.748 168.793C222.01 150.993 212.954 118.252 203.782 100.853C197.865 97.0789 191.147 90.4349 187.672 83.8427C186.264 81.167 186.044 79.9907 187.53 77.664C188.628 75.9578 191.173 75.9061 192.917 76.5265C191.832 74.8849 189.765 73.6182 191.612 71.3173C192.439 70.2832 193.77 69.5465 195.023 70.0118C193.666 66.5088 197.284 63.4971 200.294 66.5218C197.619 62.4113 195.178 58.7274 192.504 54.9659C190.85 52.6392 189.132 49.7955 190.514 48.4124C192.284 46.6415 194.984 49.0587 198.188 52.8848C203.665 59.4254 205.474 61.6099 211.21 67.349C216.61 72.7521 222.359 83.5583 220.111 88.4702C221.906 95.9414 249.203 139.295 258.143 148.253C261.411 151.523 258.737 154.664 257.975 159.227C257.045 164.734 253.027 184.123 239.062 177.815C235.096 176.031 230.226 169.865 229.761 168.806L229.748 168.793Z" fill="white"/>
<path d="M244.243 179.689C242.525 179.689 240.703 179.25 238.778 178.384C234.618 176.51 229.684 170.253 229.167 169.051C225.95 161.645 222.54 151.769 218.922 141.299C213.858 126.615 208.613 111.44 203.291 101.306C197.878 97.8159 190.812 91.1978 187.104 84.1531C185.579 81.2705 185.36 79.8875 186.988 77.341C187.892 75.9321 189.636 75.4409 191.341 75.5702C190.398 74.3939 189.507 72.9332 191.109 70.9426C191.961 69.8827 193.072 69.2881 194.145 69.2623C193.886 67.6336 194.493 66.0695 195.785 65.2164C196.457 64.7769 197.348 64.5313 198.33 64.7252C196.354 61.7005 194.235 58.5336 191.961 55.3409C190.049 52.6523 188.331 49.6793 190.036 47.9731C190.579 47.4302 191.225 47.1587 191.961 47.1975C193.628 47.275 195.553 48.8003 198.64 52.4972L198.769 52.6523C204.143 59.0765 205.965 61.2481 211.636 66.9226C216.881 72.1706 222.953 83.106 220.757 88.5479C222.863 96.0838 249.462 138.714 258.569 147.827C261.192 150.451 260.365 153.088 259.487 155.893C259.151 156.991 258.789 158.116 258.582 159.357C257.613 165.096 255.056 175.23 248.738 178.604C247.343 179.353 245.845 179.715 244.256 179.715L244.243 179.689ZM190.799 76.8111C189.675 76.8111 188.59 77.173 188.047 78.0132C186.716 80.0943 186.871 81.012 188.215 83.5585C191.845 90.461 198.821 96.9498 204.105 100.324C204.195 100.388 204.273 100.466 204.324 100.556C209.711 110.781 214.995 126.085 220.111 140.885C223.715 151.317 227.113 161.179 230.317 168.534C230.73 169.491 235.497 175.514 239.295 177.221C242.628 178.72 245.599 178.798 248.131 177.44C253.97 174.325 256.399 164.618 257.329 159.098C257.549 157.767 257.936 156.552 258.272 155.466C259.125 152.726 259.745 150.748 257.665 148.68C248.893 139.903 221.403 96.6784 219.465 88.5996C219.426 88.4574 219.452 88.3152 219.504 88.186C221.519 83.7653 216.352 73.3986 210.732 67.7758C205.022 62.0624 203.2 59.8909 197.8 53.4278L197.671 53.2727C195.953 51.2304 193.499 48.503 191.897 48.4255C191.522 48.4125 191.212 48.5418 190.928 48.8262C189.752 50.0024 192.181 53.4408 192.982 54.5653C195.811 58.5466 198.408 62.489 200.785 66.1471C200.966 66.4185 200.901 66.7804 200.655 66.9873C200.397 67.1941 200.035 67.1682 199.816 66.9485C198.718 65.8498 197.478 65.5913 196.47 66.2505C195.604 66.8063 194.958 68.1506 195.591 69.7793C195.682 70.012 195.63 70.2705 195.449 70.4514C195.268 70.6324 195.01 70.6841 194.778 70.5936C193.822 70.2317 192.736 70.8909 192.09 71.7053C191.018 73.0496 191.535 73.7993 192.62 75.1048C192.904 75.4409 193.189 75.7899 193.434 76.1648C193.589 76.3974 193.576 76.6947 193.408 76.9015C193.24 77.1213 192.956 77.1988 192.698 77.1084C192.116 76.9015 191.445 76.7852 190.799 76.7852V76.8111Z" fill="black"/>
<path d="M197.633 86.8418C197.245 86.8418 196.845 86.7643 196.457 86.6221C195.63 86.2989 194.972 85.7302 194.39 85.2132L191.69 82.8477C191.432 82.615 191.406 82.2143 191.626 81.9558C191.858 81.6973 192.259 81.6714 192.517 81.8912L195.217 84.2566C195.747 84.722 196.289 85.2002 196.896 85.4329C197.478 85.6526 198.085 85.6139 198.434 85.3166C198.873 84.9546 198.925 84.2566 198.795 83.7525C198.615 83.0804 198.162 82.4858 197.71 81.9299C196.018 79.8618 195.592 79.5257 194.338 78.5304C193.873 78.1555 193.292 77.7031 192.491 77.031C192.22 76.8112 192.194 76.4105 192.414 76.1391C192.633 75.8676 193.034 75.8418 193.305 76.0615C194.093 76.7207 194.661 77.1732 195.127 77.5351C196.418 78.5562 196.909 78.944 198.692 81.1285C199.209 81.7619 199.79 82.5116 200.023 83.4294C200.32 84.541 200.023 85.6656 199.248 86.286C198.808 86.648 198.24 86.8418 197.62 86.8418H197.633Z" fill="black"/>
<path d="M202.529 84.4891C201.922 84.4891 201.327 84.2952 200.772 84.0626C200.1 83.7911 199.428 83.4938 198.769 83.1836C198.459 83.0414 198.317 82.6536 198.459 82.3434C198.601 82.0332 198.989 81.891 199.299 82.0461C199.932 82.3434 200.591 82.6278 201.25 82.8992C201.883 83.1578 202.542 83.3646 202.994 83.1319C203.562 82.8346 203.691 81.9039 203.523 81.1284C203.265 79.9262 201.534 77.1471 194.752 70.6712L194.558 70.4902C194.3 70.2446 194.3 69.8439 194.532 69.5983C194.778 69.3527 195.178 69.3398 195.424 69.5725L195.617 69.7534C201.327 75.2082 204.311 78.8405 204.751 80.8569C205.022 82.1107 204.751 83.636 203.549 84.2565C203.213 84.4245 202.865 84.5021 202.516 84.5021L202.529 84.4891Z" fill="black"/>
<path d="M207.412 89.1036C207.18 89.1036 206.96 88.9873 206.857 88.7675C205.242 85.6911 206.598 82.5501 207.593 80.2622C207.968 79.3962 208.536 78.0906 208.303 77.845C207.554 77.0436 204.35 76.7851 202.8 76.6558C201.935 76.5783 201.534 76.5524 201.302 76.4749C199.583 75.9061 198.86 74.9884 198.563 74.3162C198.304 73.7216 198.266 73.0883 198.472 72.61C198.757 71.9637 199.855 70.5547 200.733 70.2704C202.348 69.7404 206.198 69.8567 209.673 70.0118C210.125 70.0377 210.513 70.0506 210.81 70.0636C212.114 70.1023 215.951 71.4983 216.403 73.0365C216.507 73.3726 216.313 73.7216 215.977 73.825C215.641 73.9284 215.292 73.7345 215.189 73.3985C215.008 72.7651 212.024 71.3691 210.771 71.3303C210.461 71.3303 210.073 71.3045 209.621 71.2786C207.192 71.1752 202.658 70.9684 201.134 71.4854C200.785 71.6018 199.868 72.61 199.635 73.14C199.609 73.2046 199.558 73.4631 199.725 73.8121C199.881 74.174 200.358 74.8333 201.702 75.2857C201.831 75.3245 202.413 75.3762 202.916 75.4149C205.565 75.6347 208.239 75.9449 209.234 77.0048C210.022 77.858 209.466 79.1506 208.756 80.7792C207.813 82.9508 206.637 85.6524 207.98 88.1988C208.148 88.509 208.019 88.8839 207.722 89.0519C207.632 89.1036 207.528 89.1295 207.425 89.1295L207.412 89.1036Z" fill="black"/>
<path d="M203.769 71.1365C203.549 71.1365 203.343 71.0201 203.226 70.8263C202.865 70.2058 201.728 68.9778 200.824 67.9955C200.346 67.4784 199.893 66.9872 199.583 66.6253C199.364 66.3538 199.39 65.9531 199.661 65.7334C199.932 65.5137 200.333 65.5395 200.552 65.811C200.849 66.16 201.289 66.6382 201.767 67.1423C202.774 68.2281 203.911 69.4561 204.337 70.1929C204.518 70.4902 204.415 70.878 204.105 71.0589C204.002 71.1106 203.898 71.1494 203.782 71.1494L203.769 71.1365Z" fill="black"/>
<path d="M204.996 82.2918C204.828 82.2918 204.673 82.2788 204.518 82.2401C204.182 82.1625 203.975 81.8135 204.053 81.4774C204.13 81.1413 204.479 80.9345 204.815 81.0121C205.151 81.0896 205.706 80.9216 206.068 80.4175C206.611 79.6678 206.482 78.5174 205.719 77.2765C205.539 76.9792 205.629 76.5914 205.926 76.4104C206.223 76.2294 206.611 76.3199 206.792 76.6172C208.29 79.0344 207.502 80.6114 207.089 81.1672C206.572 81.8781 205.758 82.3047 204.983 82.3047L204.996 82.2918Z" fill="black"/>
<path d="M461.572 197.153C456.701 171.572 456.676 144.117 436.083 126.926C426.201 118.666 402.766 115.111 389.034 114.219C388.194 127.52 375.198 130.687 366.866 130.157C352.965 129.265 350.498 126.525 346.958 115.977C343.845 117.218 325.074 118.162 312.879 129.058C290.246 149.288 260.623 146.134 259.008 147.749C256.761 149.999 262.29 169.62 242.331 178.875C233.933 182.766 284.238 190.767 318.886 181.59C317.594 199.725 328.187 249.969 331.947 270.34C368.08 295.559 438.305 269.72 438.305 269.72C438.305 269.72 432.621 252.98 432.621 240.352C432.621 234.095 454.505 247.047 457.412 247.564C458.381 247.732 460.564 246.944 460.952 246.039C463.393 240.326 466.042 220.678 461.559 197.14L461.572 197.153Z" fill="black"/>
<path d="M375.017 281.986C359.748 281.986 343.742 279.336 331.585 270.857C331.443 270.766 331.353 270.611 331.327 270.456C330.733 267.212 329.97 263.256 329.079 258.693C324.415 234.535 317.413 198.264 318.189 182.43C299.857 187.109 279.459 186.734 268.84 186.088C255.676 185.286 241.84 183.011 240.832 180.232C240.677 179.793 240.625 178.966 242.059 178.306C256.696 171.52 257.303 158.956 257.626 152.209C257.755 149.611 257.82 148.047 258.556 147.323C259.06 146.819 260.21 146.715 263.763 146.457C273.103 145.784 295 144.207 312.466 128.593C322.129 119.958 335.577 117.541 342.798 116.236C344.646 115.899 346.119 115.641 346.739 115.395C346.907 115.331 347.075 115.331 347.242 115.408C347.397 115.486 347.527 115.615 347.578 115.783C351.041 126.15 353.237 128.657 366.917 129.536C369.217 129.679 375.16 129.717 380.456 126.835C385.365 124.172 388.039 119.907 388.401 114.193C388.401 114.025 388.491 113.87 388.621 113.754C388.75 113.637 388.918 113.586 389.073 113.599C405.079 114.633 427.105 118.614 436.484 126.447C453.394 140.575 456.65 161.903 459.802 182.533C460.526 187.303 461.288 192.254 462.192 197.036C466.481 219.566 464.336 239.757 461.546 246.297C461.016 247.538 458.484 248.404 457.309 248.198C456.469 248.042 454.583 247.151 451.327 245.574C445.94 242.962 435.903 238.115 433.629 239.537C433.461 239.64 433.254 239.834 433.254 240.364C433.254 252.735 438.848 269.357 438.9 269.526C439.016 269.849 438.835 270.211 438.525 270.327C438.344 270.392 420.659 276.842 398.775 280.125C391.592 281.198 383.414 281.999 375.017 281.999V281.986ZM332.528 269.965C351.028 282.71 378.648 281.844 398.594 278.858C418.153 275.924 434.314 270.456 437.518 269.332C436.51 266.229 432.001 251.61 432.001 240.351C432.001 239.279 432.531 238.723 432.97 238.451C435.618 236.797 443.098 240.17 451.883 244.423C454.428 245.651 456.831 246.814 457.541 246.944C458.316 247.073 460.164 246.336 460.396 245.793C462.515 240.817 465.615 221.699 460.965 197.269C460.048 192.447 459.298 187.51 458.562 182.714C455.306 161.373 452.232 141.222 435.683 127.404C426.653 119.868 405.376 115.964 389.615 114.891C389.073 120.682 386.127 125.18 381.063 127.934C375.47 130.971 369.243 130.945 366.84 130.79C353.056 129.911 350.123 127.145 346.584 116.765C345.77 116.985 344.568 117.205 343.031 117.476C335.926 118.756 322.71 121.135 313.318 129.524C295.529 145.423 273.348 147.025 263.866 147.698C261.773 147.853 259.797 147.995 259.435 148.215C259.073 148.576 258.996 150.438 258.905 152.247C258.569 159.266 257.949 172.335 242.615 179.444C242.124 179.677 242.046 179.832 242.046 179.832C242.369 181.021 251.567 183.735 268.736 184.808C287.029 185.946 305.257 184.55 318.731 180.982C318.925 180.93 319.145 180.982 319.3 181.111C319.455 181.241 319.545 181.434 319.532 181.641C318.447 196.804 325.888 235.388 330.345 258.448C331.211 262.907 331.947 266.772 332.541 269.965H332.528Z" fill="black"/>
<path d="M424.289 220.122C424.018 220.122 423.772 219.954 423.695 219.682C416.318 197.333 412.146 183.205 412.146 152.57C412.146 152.221 412.43 151.937 412.779 151.937C413.127 151.937 413.412 152.221 413.412 152.57C413.412 183.011 417.558 197.062 424.896 219.295C425 219.631 424.832 219.98 424.496 220.096C424.431 220.122 424.366 220.122 424.302 220.122H424.289Z" fill="black"/>
<path d="M318.887 182.223C318.732 182.223 318.589 182.171 318.46 182.068C318.086 181.732 318.086 181.37 318.008 176.859C317.956 173.511 317.879 167.901 317.569 159.37C317.569 159.021 317.827 158.724 318.176 158.711C318.525 158.685 318.822 158.969 318.835 159.318C319.145 167.862 319.235 173.472 319.274 176.833C319.313 179.25 319.339 180.879 319.416 181.254C319.558 181.486 319.532 181.797 319.352 182.003C319.222 182.146 319.054 182.21 318.887 182.21V182.223Z" fill="black"/>
<path d="M357.823 169.724C343.948 169.724 331.353 168.496 324.7 165.109C324.596 165.057 324.558 164.928 324.609 164.825C324.661 164.721 324.79 164.683 324.893 164.734C338.613 171.727 378.015 169.439 401.152 166.195C401.268 166.182 401.371 166.26 401.384 166.376C401.397 166.492 401.32 166.596 401.203 166.609C389.176 168.289 372.757 169.724 357.81 169.724H357.823Z" fill="white"/>
<path d="M372.627 189.216C354.206 189.216 337.373 186.282 324.738 183.192C324.622 183.166 324.557 183.05 324.583 182.934C324.609 182.817 324.725 182.753 324.842 182.779C344.22 187.522 373.532 191.891 403.206 185.816C403.322 185.79 403.425 185.868 403.451 185.984C403.477 186.101 403.4 186.204 403.283 186.23C392.884 188.363 382.523 189.203 372.615 189.203L372.627 189.216Z" fill="white"/>
<path d="M463.2 226.262C463.2 226.262 463.084 226.236 463.045 226.184C454.157 215.727 439.688 210.453 426.163 212.767C426.046 212.793 425.943 212.716 425.917 212.599C425.891 212.483 425.969 212.379 426.085 212.354C439.753 210.014 454.39 215.34 463.368 225.913C463.446 226.003 463.433 226.133 463.342 226.21C463.303 226.249 463.252 226.262 463.2 226.262Z" fill="white"/>
<path d="M461.572 216.619C461.572 216.619 461.521 216.619 461.495 216.606C460.061 216.025 458.885 214.978 457.761 213.969C457.361 213.62 456.96 213.246 456.547 212.91C454.028 210.841 450.992 209.497 447.762 209.019C447.646 209.006 447.569 208.89 447.581 208.773C447.594 208.657 447.711 208.579 447.827 208.592C451.121 209.083 454.235 210.454 456.818 212.573C457.232 212.922 457.645 213.284 458.046 213.646C459.144 214.629 460.293 215.65 461.65 216.206C461.753 216.244 461.805 216.374 461.766 216.477C461.727 216.555 461.65 216.606 461.572 216.606V216.619Z" fill="white"/>
<path d="M262.148 167.306C262.148 167.306 262.096 167.306 262.071 167.293C261.967 167.255 261.916 167.125 261.954 167.022C264.241 161.451 265.352 155.324 265.197 149.3C265.197 149.184 265.287 149.081 265.404 149.081C265.533 149.081 265.61 149.171 265.623 149.287C265.791 155.363 264.654 161.554 262.355 167.177C262.316 167.255 262.238 167.306 262.161 167.306H262.148Z" fill="white"/>
<path d="M270.455 156.086C270.455 156.086 270.429 156.086 270.403 156.086C270.287 156.061 270.222 155.944 270.248 155.841C270.739 153.695 270.868 151.498 270.648 149.313C270.648 149.197 270.726 149.093 270.842 149.081C270.958 149.081 271.062 149.158 271.075 149.274C271.294 151.511 271.152 153.747 270.661 155.931C270.635 156.035 270.558 156.099 270.455 156.099V156.086Z" fill="white"/>
<path d="M426.11 221.454C425.826 221.454 425.581 221.273 425.503 220.988C420.517 202.62 417.106 183.748 415.375 164.876C415.349 164.527 415.595 164.217 415.943 164.191C416.292 164.165 416.602 164.411 416.628 164.76C418.346 183.555 421.744 202.362 426.717 220.665C426.808 221.001 426.614 221.35 426.278 221.441C426.227 221.454 426.162 221.467 426.11 221.467V221.454Z" fill="white"/>
<path d="M317.388 185.648C317.039 185.648 316.755 185.351 316.768 185.002L317.09 164.139C317.09 163.79 317.375 163.519 317.723 163.519C318.072 163.519 318.357 163.816 318.344 164.165L318.021 185.028C318.021 185.377 317.736 185.648 317.388 185.648Z" fill="white"/>
<path d="M361.148 147.02L289.133 161.104L307.479 255.019L379.494 240.934L361.148 147.02Z" fill="white"/>
<path d="M307.479 255.643C307.35 255.643 307.234 255.604 307.131 255.539C306.988 255.449 306.898 255.307 306.859 255.139L288.515 161.218C288.489 161.05 288.515 160.882 288.605 160.74C288.696 160.598 288.838 160.507 289.006 160.468L361.014 146.379C361.35 146.314 361.686 146.534 361.75 146.883L380.095 240.791C380.159 241.14 379.94 241.463 379.591 241.528L307.583 255.617C307.583 255.617 307.505 255.617 307.466 255.617L307.479 255.643ZM289.871 161.593L307.983 254.26L378.751 240.416L360.639 147.749L289.871 161.593Z" fill="black"/>
<path d="M341.287 360.745C340.977 360.745 340.719 360.525 340.667 360.215C336.688 335.267 335.59 309.609 334.518 284.804C334.337 280.448 334.143 276.092 333.936 271.736C333.924 271.387 334.195 271.09 334.544 271.077C334.892 271.077 335.19 271.335 335.202 271.684C335.409 276.04 335.59 280.396 335.784 284.765C336.843 309.545 337.941 335.151 341.92 360.034C341.972 360.383 341.739 360.706 341.39 360.758C341.352 360.758 341.326 360.758 341.287 360.758V360.745Z" fill="black"/>
<path d="M395.83 319.123C395.584 319.123 395.352 318.981 395.249 318.735C393.427 314.379 392.368 311.354 391.438 308.679C390.507 306.003 389.758 303.857 388.544 301.324C385.844 301.686 380.108 301.53 377.253 301.453H376.517C376.168 301.427 375.896 301.13 375.896 300.781C375.896 300.432 376.181 300.173 376.542 300.16L377.279 300.186C380.263 300.264 386.49 300.432 388.776 300.005C389.061 299.953 389.332 300.096 389.461 300.354C390.817 303.146 391.618 305.408 392.613 308.278C393.543 310.928 394.59 313.939 396.398 318.257C396.527 318.58 396.385 318.955 396.062 319.084C395.985 319.123 395.894 319.136 395.817 319.136L395.83 319.123Z" fill="black"/>
<path d="M438.732 280.5C438.46 280.5 438.215 280.331 438.125 280.06C437.931 279.44 437.634 278.612 437.311 277.733C436.445 275.381 435.373 272.46 435.295 270.572C435.282 270.223 435.554 269.926 435.903 269.913C436.251 269.874 436.548 270.172 436.561 270.521C436.639 272.214 437.672 275.032 438.512 277.294C438.835 278.186 439.145 279.026 439.352 279.672C439.455 280.008 439.274 280.357 438.938 280.461C438.874 280.487 438.809 280.487 438.745 280.487L438.732 280.5Z" fill="black"/>
<path d="M449.842 222.823C444.817 220.885 396.721 204.313 390.016 196.765C385.727 191.943 373.481 182.249 369.98 181.719C364.115 180.84 360.316 179.547 355.382 180.478C351.261 181.253 343.832 184.847 344.065 186.294C344.788 190.819 354.193 184.679 355.175 184.705C358.572 184.769 361.983 184.989 365.846 187.548C361.673 189.099 354.619 192.499 353.134 194.283C351.571 196.17 348.548 204.236 348.328 205.567C347.966 207.868 349.659 209.445 351.428 206.588C351.519 206.433 355.33 201.289 356.402 198.471C356.828 197.333 364.011 194.192 367.628 193.727C363.74 193.727 357.384 196.7 356.363 198.497C356.118 198.923 352.617 206.731 352.475 207.441C351.881 210.44 354.632 210.57 356.092 208.476C357.746 206.097 359.18 202.646 359.645 202.168C362.228 199.544 365.742 199.389 368.52 198.82C365.729 199.182 362.526 199.66 359.722 201.948C359.218 202.362 354.904 208.98 357.035 210.854C358.172 211.862 360.743 210.272 362.887 205.322C365.006 204.934 366.311 205.037 368.119 204.882C369.385 204.779 376.31 212.328 381.71 213.4C382.795 213.62 402.043 235.659 428.914 249.037C431.317 250.227 452.348 258.551 461.03 245.056C463.161 241.747 464.996 228.666 449.842 222.823Z" fill="white"/>
<path d="M445.101 253.29C438.035 253.29 431.214 250.886 428.643 249.606C407.159 238.917 390.417 222.591 384.112 216.451C382.885 215.262 381.826 214.215 381.516 214.008C377.989 213.271 374.01 210.04 371.103 207.687C369.902 206.718 368.558 205.619 368.145 205.516C367.525 205.567 366.969 205.593 366.427 205.619C365.445 205.658 364.528 205.697 363.339 205.89C361.867 209.174 360.006 211.345 358.327 211.72C357.681 211.862 357.074 211.72 356.622 211.332C356.17 210.932 355.911 210.389 355.847 209.691C354.955 210.453 353.844 210.738 352.966 210.363C352.591 210.208 351.403 209.51 351.842 207.312C351.855 207.222 351.906 207.067 351.997 206.847C351.971 206.886 351.958 206.899 351.945 206.912C350.666 208.993 349.439 208.812 348.974 208.644C347.979 208.269 347.449 206.963 347.695 205.451C347.927 204.003 351.002 195.834 352.63 193.869C354.141 192.06 360.433 189.022 364.412 187.406C361.208 185.609 358.314 185.39 355.175 185.325C354.942 185.377 354.18 185.752 353.495 186.088C350.821 187.393 346.791 189.358 344.685 188.259C344.207 188.014 343.6 187.484 343.432 186.385C343.07 184.097 351.842 180.491 355.265 179.844C359.102 179.121 362.177 179.689 366.078 180.4C367.331 180.633 368.636 180.866 370.07 181.085C373.79 181.641 386.141 191.439 390.481 196.338C396.191 202.762 433.616 216.27 445.915 220.717C447.93 221.44 449.39 221.97 450.062 222.229C458.02 225.292 461.094 230.243 462.27 233.849C463.91 238.904 462.709 243.609 461.559 245.392C457.671 251.442 451.289 253.277 445.088 253.277L445.101 253.29ZM368.158 204.249C368.843 204.249 369.786 204.986 371.904 206.705C374.566 208.863 378.596 212.134 381.839 212.78C382.213 212.858 382.588 213.194 384.991 215.533C391.256 221.634 407.896 237.857 429.198 248.469C429.418 248.572 451.625 258.499 460.5 244.707C461.598 243.001 462.502 238.632 461.068 234.237C459.505 229.429 455.539 225.693 449.61 223.405C448.938 223.147 447.491 222.63 445.489 221.893C431.808 216.955 395.468 203.835 389.538 197.165C385.12 192.202 373.028 182.805 369.876 182.326C368.416 182.107 367.112 181.874 365.833 181.641C362.06 180.956 359.076 180.4 355.472 181.085C351.183 181.887 344.982 185.17 344.659 186.217C344.762 186.812 345.047 187.031 345.24 187.135C346.778 187.936 350.77 185.997 352.914 184.95C354.258 184.291 354.761 184.058 355.123 184.058H355.136C358.689 184.123 362.215 184.407 366.143 187.005C366.336 187.135 366.453 187.367 366.427 187.6C366.401 187.833 366.246 188.04 366.026 188.117C361.427 189.836 354.852 193.145 353.573 194.671C352.126 196.416 349.116 204.326 348.909 205.645C348.754 206.601 349.038 207.325 349.387 207.455C349.671 207.558 350.24 207.222 350.86 206.239C350.86 206.214 350.937 206.123 351.054 205.968C353.056 203.176 354.258 201.25 354.968 199.944C355.407 198.988 355.73 198.29 355.795 198.174C356.932 196.17 363.468 193.081 367.615 193.081C367.951 193.081 368.223 193.339 368.248 193.675C368.274 194.011 368.029 194.296 367.693 194.347C363.959 194.826 357.448 197.863 356.958 198.704C356.802 199.13 356.531 199.725 356.092 200.526C354.994 202.956 353.185 207.08 353.069 207.558C352.901 208.411 353.043 209.019 353.444 209.187C353.947 209.406 354.891 209.044 355.549 208.101C355.782 207.765 356.002 207.416 356.234 207.054C357.074 204.52 358.895 201.793 359.309 201.444C359.748 201.082 360.2 200.759 360.665 200.487C361.466 199.957 362.319 199.583 363.171 199.298C365.058 198.626 366.905 198.38 368.429 198.187C368.765 198.135 369.075 198.38 369.14 198.704C369.191 199.04 368.972 199.363 368.636 199.427C368.158 199.518 367.667 199.608 367.163 199.699C365.846 199.919 364.424 200.164 363.081 200.681C362.59 200.875 362.099 201.108 361.634 201.392C361.091 201.715 360.575 202.116 360.097 202.607C359.955 202.762 359.541 203.577 359.18 204.301C358.702 205.257 358.081 206.459 357.41 207.597C357.203 208.23 357.087 208.851 357.1 209.368C357.1 209.833 357.229 210.169 357.461 210.376C357.513 210.427 357.668 210.557 358.056 210.479C359.037 210.259 360.743 208.708 362.319 205.076C362.409 204.882 362.577 204.74 362.784 204.701C364.218 204.443 365.316 204.391 366.375 204.352C366.918 204.326 367.473 204.301 368.08 204.249C368.106 204.249 368.132 204.249 368.158 204.249Z" fill="black"/>
<path d="M327.335 203.331C326.844 200.229 329.557 197.217 333.407 196.597C337.257 195.989 340.771 198.006 341.261 201.108C341.752 204.21 339.039 207.222 335.19 207.842C331.34 208.45 327.826 206.433 327.335 203.331Z" fill="black"/>
<path d="M333.833 208.579C330.242 208.579 327.193 206.459 326.715 203.422C326.444 201.729 326.999 200.009 328.278 198.6C329.518 197.217 331.314 196.287 333.317 195.964C335.319 195.64 337.308 195.976 338.923 196.907C340.577 197.851 341.636 199.311 341.907 201.005C342.179 202.698 341.623 204.417 340.344 205.826C339.104 207.209 337.308 208.14 335.306 208.463C334.815 208.541 334.324 208.579 333.846 208.579H333.833ZM334.789 197.114C334.363 197.114 333.937 197.153 333.51 197.217C331.792 197.489 330.268 198.277 329.221 199.454C328.201 200.578 327.762 201.922 327.968 203.228C328.408 205.981 331.611 207.765 335.099 207.209C336.817 206.938 338.342 206.149 339.388 204.973C340.409 203.848 340.848 202.504 340.641 201.199C340.435 199.893 339.595 198.756 338.277 197.993C337.257 197.411 336.055 197.101 334.789 197.101V197.114Z" fill="black"/>
<path d="M383.737 328.688C383.388 328.688 383.117 328.416 383.104 328.067C382.962 321.1 382.923 317.752 382.885 314.508C382.846 311.264 382.794 307.916 382.665 300.949C382.665 300.6 382.936 300.315 383.285 300.302C383.634 300.302 383.905 300.574 383.918 300.923C384.06 307.89 384.099 311.238 384.138 314.482C384.176 317.727 384.228 321.074 384.357 328.042C384.357 328.391 384.086 328.675 383.737 328.688Z" fill="black"/>
<path d="M259.396 398.773C259.396 398.773 249.785 394.688 297.248 340.218C333.769 298.325 335.538 298.454 335.538 298.454L334.867 284.92C334.867 284.92 289.367 328.985 270.209 355.38C241.401 395.076 259.396 398.773 259.396 398.773Z" fill="black"/>
<path d="M259.409 399.406C259.409 399.406 259.319 399.406 259.267 399.393C259.112 399.367 255.611 398.592 253.996 394.43C251.942 389.143 253.015 378.014 269.705 355.018C288.683 328.882 333.988 284.92 334.44 284.468C334.621 284.3 334.88 284.248 335.112 284.338C335.345 284.429 335.5 284.649 335.513 284.894L336.184 298.428C336.184 298.609 336.12 298.79 335.991 298.906C335.926 298.971 335.849 299.022 335.758 299.048C335.293 299.32 330.875 302.603 297.726 340.631C261.554 382.137 258.789 394.068 259.267 397.273C259.371 397.92 259.59 398.139 259.655 398.191C259.965 398.282 260.12 398.605 260.042 398.928C259.978 399.212 259.694 399.406 259.396 399.406H259.409ZM334.311 286.355C327.516 292.999 288.063 331.881 270.726 355.755C254.397 378.246 253.247 388.936 255.159 393.938C255.895 395.851 257.071 396.924 258.027 397.506C257.342 393.202 261.735 380.017 296.77 339.804C315.644 318.153 325.062 307.941 329.635 303.185C332.8 299.889 334.208 298.609 334.893 298.118L334.311 286.342V286.355ZM335.5 299.087C335.5 299.087 335.564 299.087 335.59 299.087C335.564 299.087 335.526 299.087 335.5 299.087Z" fill="black"/>
<path d="M458.886 189.72C458.886 189.72 510.663 156.978 515.624 175.411C510.289 167.513 460.824 202.685 460.824 202.685L458.886 189.707V189.72Z" fill="black"/>
<path d="M460.823 203.331C460.746 203.331 460.655 203.318 460.578 203.279C460.371 203.189 460.229 203.008 460.203 202.788L458.265 189.81C458.226 189.565 458.343 189.319 458.549 189.177C460.138 188.169 497.731 164.566 511.541 169.943C513.97 170.887 515.546 172.67 516.244 175.243C516.321 175.54 516.179 175.85 515.895 175.98C515.611 176.109 515.275 176.018 515.107 175.76C514.823 175.346 514.358 175.075 513.686 174.958C503.635 173.136 461.611 202.892 461.185 203.202C461.081 203.279 460.952 203.318 460.823 203.318V203.331ZM459.57 190.043L461.288 201.586C467.489 197.23 504.023 171.934 513.906 173.73C514.035 173.756 514.164 173.782 514.293 173.821C513.583 172.593 512.523 171.714 511.076 171.145C498.545 166.246 463.458 187.639 459.57 190.043Z" fill="black"/>
<path d="M53.163 26.7324C55.4367 18.0719 64.2988 12.8886 72.9672 15.1765C81.6226 17.4515 86.803 26.3188 84.5164 34.9921C82.2427 43.6526 73.3806 48.8359 64.7122 46.548C56.0568 44.273 50.8764 35.4058 53.163 26.7324Z" fill="#1490FE"/>
<path d="M68.8331 47.7113C67.425 47.7113 65.9781 47.5303 64.5571 47.1555C60.2035 46.0051 56.5605 43.2389 54.2997 39.3482C52.039 35.4574 51.4189 30.9204 52.5557 26.5643C53.7055 22.2082 56.47 18.5631 60.3585 16.301C64.247 14.039 68.7814 13.4185 73.135 14.556C82.1134 16.9215 87.5005 26.1507 85.1364 35.1343C83.1469 42.6831 76.313 47.6984 68.846 47.6984L68.8331 47.7113ZM68.8331 15.2669C61.9217 15.2669 55.6045 19.9074 53.77 26.8875C51.5868 35.1989 56.5605 43.743 64.8671 45.9275C68.8848 46.9875 73.0833 46.4187 76.6747 44.3118C80.2661 42.2178 82.8239 38.8441 83.8833 34.8111C84.9426 30.7911 84.3742 26.5902 82.2684 22.9967C80.1756 19.4033 76.8039 16.8439 72.7733 15.784C71.4556 15.435 70.125 15.2669 68.8202 15.2669H68.8331Z" fill="black"/>
<path d="M68.3424 39.9943C67.9549 39.9943 67.5673 39.9426 67.1927 39.8521C63.2784 38.818 62.219 36.3362 62.1803 36.2199C62.0511 35.8967 62.2061 35.5219 62.5291 35.3926C62.852 35.2633 63.2267 35.4185 63.3559 35.7416C63.3946 35.8192 64.2472 37.7581 67.5156 38.6241C68.3166 38.8309 69.1951 38.7276 69.9185 38.3398C70.474 38.0425 71.1974 37.4349 71.5075 36.2587C72.1405 33.8803 70.6419 32.6523 68.9109 31.2304C67.2185 29.8344 65.2937 28.2574 65.9008 25.4266C66.1204 24.3926 66.9343 23.3456 68.0324 22.6734C69.1046 22.0271 70.2931 21.8203 71.3783 22.1176C75.1118 23.1 75.4347 25.5559 75.4477 25.6593C75.4864 26.0083 75.241 26.3185 74.8922 26.3573C74.5434 26.3961 74.2333 26.1505 74.1946 25.8015C74.1816 25.711 73.8974 24.0823 71.0553 23.3326C70.3061 23.1258 69.4664 23.268 68.7042 23.7463C67.9161 24.2245 67.296 25.013 67.141 25.6852C66.7018 27.7663 68.097 28.9167 69.7118 30.2481C71.5075 31.7346 73.5615 33.4149 72.7218 36.5818C72.386 37.8357 71.6108 38.8568 70.5128 39.4514C69.841 39.8133 69.0917 40.0072 68.3295 40.0072L68.3424 39.9943Z" fill="black"/>
<path d="M71.2749 23.3584C71.2749 23.3584 71.1716 23.3584 71.1199 23.3326C70.784 23.2421 70.5773 22.8931 70.6678 22.557L71.2749 20.2691C71.3654 19.933 71.7142 19.7262 72.05 19.8167C72.3859 19.9072 72.5926 20.2562 72.5022 20.5923L71.895 22.8802C71.8175 23.1645 71.5591 23.3455 71.2879 23.3455L71.2749 23.3584Z" fill="black"/>
<path d="M66.0816 41.9849C66.0816 41.9849 65.9782 41.9849 65.9265 41.959C65.5907 41.8686 65.384 41.5196 65.4744 41.1835L66.0816 38.8956C66.172 38.5595 66.5208 38.3527 66.8567 38.4432C67.1926 38.5336 67.3993 38.8827 67.3088 39.2187L66.7017 41.5066C66.6242 41.791 66.3658 41.972 66.0945 41.972L66.0816 41.9849Z" fill="black"/>
</svg>
