<?xml version="1.0" encoding="UTF-8"?>
<svg id="Layer_1" data-name="Layer 1" xmlns="http://www.w3.org/2000/svg" xmlns:xlink="http://www.w3.org/1999/xlink" viewBox="0 0 108 48">
  <defs>
    <style>
      .cls-1 {
        fill: url(#linear-gradient-2);
      }

      .cls-2 {
        fill: #fff;
      }

      .cls-3 {
        fill: #f6c11c;
      }

      .cls-4 {
        fill: url(#linear-gradient-6);
      }

      .cls-5 {
        fill: url(#linear-gradient-5);
      }

      .cls-6 {
        fill: url(#linear-gradient-7);
      }

      .cls-7 {
        fill: url(#linear-gradient-9);
      }

      .cls-8 {
        fill: url(#linear-gradient-3);
      }

      .cls-9 {
        fill: url(#linear-gradient);
      }

      .cls-10 {
        fill: url(#linear-gradient-4);
      }

      .cls-11 {
        fill: url(#linear-gradient-8);
      }
    </style>
    <linearGradient id="linear-gradient" x1="30.51" y1="19.07" x2="136.08" y2="39.8" gradientUnits="userSpaceOnUse">
      <stop offset="0" stop-color="#f6c11c"/>
      <stop offset="1" stop-color="#ffd45b"/>
    </linearGradient>
    <linearGradient id="linear-gradient-2" x1="30.56" y1="15.09" x2="136.13" y2="35.82" xlink:href="#linear-gradient"/>
    <linearGradient id="linear-gradient-3" x1="30.11" y1="10.82" x2="135.68" y2="31.55" xlink:href="#linear-gradient"/>
    <linearGradient id="linear-gradient-4" x1="2.93" y1="11.09" x2="6.98" y2="11.86" xlink:href="#linear-gradient"/>
    <linearGradient id="linear-gradient-5" x1="15.98" y1="11.13" x2="19.64" y2="11.83" xlink:href="#linear-gradient"/>
    <linearGradient id="linear-gradient-6" x1="34.86" y1="20.97" x2="48.79" y2="20.97" xlink:href="#linear-gradient"/>
    <linearGradient id="linear-gradient-7" x1="34.86" y1="16.06" x2="47.05" y2="16.06" xlink:href="#linear-gradient"/>
    <linearGradient id="linear-gradient-8" x1="63.1" y1="17.97" x2="63.56" y2="17.97" xlink:href="#linear-gradient"/>
    <linearGradient id="linear-gradient-9" x1="62.34" y1="21.79" x2="64.23" y2="21.79" xlink:href="#linear-gradient"/>
  </defs>
  <g>
    <path class="cls-3" d="m28.03,37.7h1.54v.59h-2.21v-3.34h.67v2.75Z"/>
    <path class="cls-3" d="m31.19,34.95v3.34h-.67v-3.34h.67Z"/>
    <path class="cls-3" d="m35.8,37.66v.63h-1.83c-.51,0-.92-.16-1.25-.48-.33-.32-.5-.72-.5-1.22s.16-.89.5-1.21c.33-.32.75-.48,1.25-.48s.91.15,1.24.46c.33.3.5.69.5,1.15,0,.56-.27,1.02-.72,1.27l.81-.13Zm-1.06-.27c.2-.21.3-.47.3-.78s-.1-.58-.3-.78c-.2-.2-.46-.3-.77-.3s-.56.1-.76.3c-.2.21-.3.47-.3.78s.1.58.3.78c.2.21.45.31.76.31s.57-.1.77-.31Z"/>
    <path class="cls-3" d="m39.38,34.95v2.12c0,.37-.13.67-.37.91-.25.24-.57.35-.96.35s-.71-.12-.96-.35c-.25-.24-.38-.54-.38-.91v-2.12h.66v2.09c0,.41.27.68.67.68s.66-.27.66-.68v-2.09h.67Z"/>
    <path class="cls-3" d="m41.19,34.95v3.34h-.67v-3.34h.67Z"/>
    <path class="cls-3" d="m43.55,34.95c.51,0,.91.15,1.24.47.32.31.48.71.48,1.2s-.16.89-.48,1.2-.73.47-1.24.47h-1.17v-3.34h1.17Zm0,2.75c.31,0,.56-.1.76-.3.19-.2.29-.46.29-.78s-.1-.57-.29-.77c-.2-.2-.45-.3-.76-.3h-.49v2.16h.49Z"/>
    <path class="cls-3" d="m46.98,34.95v3.34h-.67v-3.34h.67Z"/>
    <path class="cls-3" d="m50.53,34.95v.59h-.98v2.75h-.67v-2.75h-.98v-.59h2.62Z"/>
    <path class="cls-3" d="m54.41,34.95l-1.28,1.98v1.36h-.67v-1.34l-1.29-2h.76l.87,1.42.86-1.42h.76Z"/>
    <path class="cls-3" d="m59.3,35.2c.23.2.35.47.35.79h-.65c0-.33-.25-.54-.62-.54-.33,0-.56.17-.56.43,0,.73,1.92.17,1.92,1.43,0,.31-.13.56-.38.75-.25.19-.58.28-.98.28s-.72-.1-.96-.31c-.25-.2-.37-.47-.38-.81h.67c0,.34.27.57.7.57.38,0,.64-.18.64-.46,0-.72-1.92-.18-1.92-1.41,0-.31.12-.55.35-.74.24-.19.54-.28.91-.28s.66.1.89.3Z"/>
    <path class="cls-3" d="m62.37,34.9c.51,0,.92.16,1.26.48.33.32.49.74.49,1.23s-.16.91-.49,1.23c-.33.32-.75.49-1.26.49s-.92-.16-1.25-.49c-.33-.32-.5-.74-.5-1.23s.16-.91.5-1.23c.33-.32.75-.48,1.25-.48Zm-.76.92c-.2.21-.3.47-.3.78s.1.59.3.79c.2.21.45.32.76.32s.57-.11.77-.31c.2-.21.3-.48.3-.8s-.1-.58-.3-.78c-.2-.21-.46-.31-.77-.31s-.56.1-.76.31Z"/>
    <path class="cls-3" d="m65.83,37.7h1.54v.59h-2.21v-3.34h.67v2.75Z"/>
    <path class="cls-3" d="m70.84,34.95v2.12c0,.37-.13.67-.37.91-.25.24-.57.35-.96.35s-.71-.12-.96-.35c-.25-.24-.38-.54-.38-.91v-2.12h.66v2.09c0,.41.27.68.67.68s.66-.27.66-.68v-2.09h.67Z"/>
    <path class="cls-3" d="m74.34,34.95v.59h-.98v2.75h-.67v-2.75h-.98v-.59h2.62Z"/>
    <path class="cls-3" d="m75.94,34.95v3.34h-.67v-3.34h.67Z"/>
    <path class="cls-3" d="m78.72,34.9c.51,0,.92.16,1.26.48.33.32.49.74.49,1.23s-.16.91-.49,1.23c-.33.32-.75.49-1.26.49s-.92-.16-1.25-.49c-.33-.32-.5-.74-.5-1.23s.16-.91.5-1.23c.33-.32.75-.48,1.25-.48Zm-.76.92c-.2.21-.3.47-.3.78s.1.59.3.79c.2.21.45.32.76.32s.57-.11.77-.31c.2-.21.3-.48.3-.8s-.1-.58-.3-.78c-.2-.21-.46-.31-.77-.31s-.56.1-.76.31Z"/>
    <path class="cls-3" d="m83.66,34.95h.67v3.34h-.85l-1.29-2.44v2.44h-.67v-3.34h.85l1.29,2.44v-2.44Z"/>
    <path class="cls-3" d="m87.6,35.2c.23.2.35.47.35.79h-.65c0-.33-.25-.54-.62-.54-.33,0-.56.17-.56.43,0,.73,1.92.17,1.92,1.43,0,.31-.13.56-.38.75-.25.19-.58.28-.98.28s-.72-.1-.96-.31c-.25-.2-.37-.47-.38-.81h.67c0,.34.27.57.7.57.38,0,.64-.18.64-.46,0-.72-1.92-.18-1.92-1.41,0-.31.12-.55.35-.74.24-.19.54-.28.91-.28s.66.1.89.3Z"/>
  </g>
  <rect class="cls-2" x="9.85" y="36.25" width="15.35" height=".81"/>
  <rect class="cls-2" x="89.82" y="36.25" width="15.35" height=".81"/>
  <path class="cls-9" d="m54.13,20.29c.97-2.38,2.88-3.76,5.43-3.76v2.97c-3.38,0-5.43,1.79-5.43,4.73v7.14h-3v-14.45h3v3.38Z"/>
  <path class="cls-1" d="m88.75,21.9v9.46h-3v-9.07c0-1.97-1.15-3.23-3.02-3.23s-3.05,1.26-3.05,3.23v9.07h-3.02v-9.07c0-2-1.15-3.23-3.02-3.23s-3.05,1.26-3.05,3.23v9.07h-3v-14.45h3v1.94c.88-1.47,2.29-2.2,4.2-2.2s3.55.97,4.35,2.7c.82-1.67,2.5-2.7,4.61-2.7,2.97,0,5.02,2.08,5.02,5.26Z"/>
  <path class="cls-8" d="m105.49,25.07h-12.36c.38,2.44,2.32,4.08,4.79,4.08,2.03,0,3.82-1.26,4.38-3.02h3.05c-.41,1.62-1.32,2.91-2.7,3.93-1.38,1.03-2.97,1.56-4.76,1.56-2.23,0-4.08-.7-5.52-2.11-1.47-1.41-2.2-3.2-2.2-5.37s.73-3.96,2.2-5.37c1.44-1.41,3.29-2.11,5.52-2.11s4.08.7,5.52,2.11c1.44,1.41,2.14,3.2,2.17,5.4,0,.32-.03.62-.09.91Zm-7.58-5.96c-1.17,0-2.17.32-3.02,1-.85.68-1.41,1.56-1.67,2.64h9.48c-.26-1.09-.82-1.97-1.7-2.64s-1.91-1-3.08-1Z"/>
  <path class="cls-2" d="m16.32,10.94l-.51,1.07-4.43,9.39-4.43-9.39-.51-1.07h-3.49l.56,1.07,6.41,12.29v7.55h2.91v-7.55l6.41-12.29.56-1.07h-3.49Z"/>
  <path class="cls-2" d="m23.1,32.15c-3.41,0-5.11-1.26-5.11-3.78v-1.98c0-2.4,1.94-3.6,5.81-3.6,1.94,0,2.91-.46,2.91-1.39v-.58c0-1.36-.97-2.03-2.91-2.03-1.67,0-2.5.68-2.5,2.03v1.16h-2.91v-1.74c0-2.52,1.8-3.78,5.4-3.78,3.87,0,5.81,1.26,5.81,3.78v9.59c0,1.36.39,2.03,1.16,2.03h-2.91c-.77,0-1.16-.68-1.16-2.03,0,1.55-1.2,2.32-3.6,2.32Zm.7-7.03c-1.94,0-2.91.62-2.91,1.86v.81c0,1.36.97,2.03,2.91,2.03s2.91-.91,2.91-2.74v-3.01c0,.7-.97,1.05-2.91,1.05Z"/>
  <polygon class="cls-10" points="6.44 10.94 6.95 12.01 3.51 12.01 2.95 10.94 6.44 10.94"/>
  <polygon class="cls-5" points="19.8 10.94 19.25 12.01 15.81 12.01 16.32 10.94 19.8 10.94"/>
  <g>
    <path class="cls-4" d="m34.86,32.24V14.01c0-2.65,1.28-4.32,4.46-4.32h4.74c2.62,0,4.74,2.12,4.74,4.74h0v3.65h0c-.02,2.62-2.16,4.74-4.78,4.74h-4s-5.16,9.43-5.16,9.43h0Z"/>
    <g>
      <polygon class="cls-6" points="34.86 21.17 39.62 14.58 42.13 17.83 47.05 10.94 34.86 21.17"/>
      <path class="cls-2" d="m34.86,21.17c1.37-2.67,3.02-5.16,4.72-7.63,1.01,1.26,2.08,2.61,3.04,3.91,0,0-1,.02-1,.02l.32-.42c.28-.38.67-.89.96-1.26,1.31-1.67,2.66-3.32,4.14-4.84-1.03,2.06-2.26,4.01-3.52,5.94-.26.39-.62.93-.89,1.32,0,0-.47.68-.47.68l-.53-.67c-.83-1.03-1.71-2.19-2.5-3.26l.99-.02c-1.65,2.16-3.35,4.28-5.26,6.23h0Z"/>
    </g>
  </g>
  <rect class="cls-2" x="63.1" y="27.69" width=".42" height="3.98"/>
  <rect class="cls-11" x="63.1" y="16.33" width=".47" height="3.27"/>
  <rect class="cls-2" x="62.34" y="24.13" width="1.89" height="4.78"/>
  <rect class="cls-7" x="62.34" y="19.4" width="1.89" height="4.78"/>
</svg>