<?xml version="1.0" encoding="UTF-8"?>
<svg xmlns="http://www.w3.org/2000/svg" xmlns:xlink="http://www.w3.org/1999/xlink" viewBox="0 0 40 40">
  <defs>
    <style>
      .cls-1 {
        fill: #fff;
      }

      .cls-2 {
        fill: #002a70;
      }

      .cls-3 {
        stroke: #fff;
        stroke-miterlimit: 10;
      }

      .cls-3, .cls-4 {
        fill: none;
      }

      .cls-5 {
        opacity: .2;
      }

      .cls-5, .cls-6 {
        mix-blend-mode: overlay;
      }

      .cls-7 {
        clip-path: url(#clippath-2);
      }

      .cls-8 {
        isolation: isolate;
      }

      .cls-9 {
        opacity: 0;
      }

      .cls-10 {
        clip-path: url(#clippath-6);
      }

      .cls-11 {
        clip-path: url(#clippath-7);
      }

      .cls-12 {
        fill: #b01820;
      }

      .cls-13 {
        clip-path: url(#clippath-1);
      }

      .cls-14 {
        clip-path: url(#clippath-4);
      }

      .cls-15 {
        fill: url(#radial-gradient);
      }

      .cls-6 {
        opacity: .6;
      }

      .cls-16 {
        clip-path: url(#clippath-9);
      }

      .cls-17 {
        clip-path: url(#clippath);
      }

      .cls-18 {
        clip-path: url(#clippath-3);
      }

      .cls-19 {
        fill: #00008b;
      }

      .cls-20 {
        clip-path: url(#clippath-5);
      }

      .cls-21 {
        mix-blend-mode: multiply;
      }

      .cls-22 {
        fill: red;
      }
    </style>
    <radialGradient id="radial-gradient" cx="8.36" cy="15.29" fx="8.36" fy="15.29" r="12.1" gradientTransform="translate(.2 -.11) rotate(.56)" gradientUnits="userSpaceOnUse">
      <stop offset="0" stop-color="#f2f2f2"/>
      <stop offset="1" stop-color="#d6d6d6"/>
    </radialGradient>
    <clipPath id="clippath">
      <circle class="cls-4" cx="11.13" cy="20" r="10.73" transform="translate(-.2 .11) rotate(-.58)"/>
    </clipPath>
    <clipPath id="clippath-1">
      <rect class="cls-4" x="3.3" y="16.54" width="8.08" height="4.39"/>
    </clipPath>
    <clipPath id="clippath-2">
      <rect class="cls-4" x="7.38" y="17.81" width="4.56" height="3.88"/>
    </clipPath>
    <clipPath id="clippath-3">
      <rect class="cls-4" x="2.98" y="16.17" width="4.45" height="4.94"/>
    </clipPath>
    <clipPath id="clippath-4">
      <rect class="cls-4" x="7.38" y="17.81" width="4.56" height="3.88"/>
    </clipPath>
    <clipPath id="clippath-5">
      <rect class="cls-4" x="2.98" y="16.17" width="4.45" height="4.94"/>
    </clipPath>
    <clipPath id="clippath-6">
      <rect class="cls-4" x="7.5" y="16.28" width="3.93" height="5.41"/>
    </clipPath>
    <clipPath id="clippath-7">
      <rect class="cls-4" x="3.06" y="16.17" width="4.52" height="4.94"/>
    </clipPath>
    <clipPath id="clippath-9">
      <circle class="cls-3" cx="28.87" cy="20" r="10.73"/>
    </clipPath>
  </defs>
  <g class="cls-8">
    <g id="Layer_1" data-name="Layer 1">
      <g>
        <g>
          <g class="cls-21">
            <path d="m20.51,20c0,5.18-4.2,9.38-9.38,9.38S1.74,25.18,1.74,20s4.2-9.38,9.38-9.38,9.38,4.2,9.38,9.38Z"/>
          </g>
          <circle class="cls-15" cx="11.13" cy="20" r="10.73" transform="translate(-.19 .11) rotate(-.56)"/>
          <g class="cls-17">
            <polygon class="cls-19" points="-1.5 8.99 -1.5 16.39 -1.5 16.44 -1.5 23.78 -1.5 23.83 -1.5 31.22 24.45 31.22 24.45 23.83 24.45 23.78 24.45 16.44 24.45 16.39 24.45 8.99 -1.5 8.99"/>
          </g>
          <circle class="cls-4" cx="11.13" cy="20" r="10.73" transform="translate(-.19 .11) rotate(-.56)"/>
          <g class="cls-6">
            <path class="cls-9" d="m1.3,23.79c0-6.85,5.55-12.41,12.41-12.41,1.72,0,3.35.35,4.84.98-1.92-1.9-4.56-3.08-7.48-3.08C5.2,9.29.44,14.05.44,19.93c0,1.5.31,2.93.87,4.23,0-.12,0-.24,0-.36Z"/>
          </g>
          <g class="cls-5">
            <path class="cls-9" d="m20.2,14.66c.87,6.75-3.89,12.92-10.64,13.8-1.69.22-3.35.08-4.89-.35,2.13,1.63,4.89,2.45,7.76,2.08,5.78-.75,9.87-6.04,9.12-11.83-.19-1.48-.68-2.85-1.4-4.05.02.12.04.23.05.35Z"/>
          </g>
        </g>
        <g>
          <polygon class="cls-1" points="7.43 21.98 7.69 22.64 8.38 22.43 8.02 23.05 8.61 23.45 7.9 23.56 7.96 24.27 7.43 23.79 6.91 24.27 6.96 23.56 6.26 23.45 6.84 23.05 6.49 22.43 7.17 22.64 7.43 21.98"/>
          <polygon class="cls-1" points="13.47 19.58 13.57 19.83 13.84 19.75 13.7 19.99 13.92 20.14 13.66 20.18 13.67 20.46 13.47 20.27 13.27 20.46 13.29 20.18 13.02 20.14 13.25 19.99 13.11 19.75 13.37 19.83 13.47 19.58"/>
          <polygon class="cls-1" points="15.54 17.39 15.64 17.65 15.9 17.57 15.76 17.8 15.99 17.96 15.72 18 15.74 18.27 15.54 18.08 15.33 18.27 15.35 18 15.08 17.96 15.31 17.8 15.17 17.57 15.44 17.65 15.54 17.39"/>
          <polygon class="cls-1" points="17.32 19.14 17.42 19.39 17.68 19.31 17.55 19.55 17.77 19.7 17.5 19.74 17.52 20.02 17.32 19.83 17.12 20.02 17.14 19.74 16.87 19.7 17.1 19.55 16.96 19.31 17.22 19.39 17.32 19.14"/>
          <polygon class="cls-1" points="15.54 22.83 15.64 23.09 15.9 23.01 15.76 23.24 15.99 23.4 15.72 23.44 15.74 23.71 15.54 23.53 15.33 23.71 15.35 23.44 15.08 23.4 15.31 23.24 15.17 23.01 15.44 23.09 15.54 22.83"/>
          <g class="cls-13">
            <g>
              <g>
                <polygon class="cls-1" points="11.3 21.38 2.44 16.57 2.83 15.74 11.69 20.56 11.3 21.38"/>
                <polygon class="cls-22" points="11.37 21.23 2.51 16.41 2.63 16.17 11.49 20.99 11.37 21.23"/>
              </g>
              <g>
                <g class="cls-7">
                  <g>
                    <polygon class="cls-1" points="2.83 15.74 11.69 20.56 11.3 21.38 2.44 16.57 2.83 15.74"/>
                    <polygon class="cls-22" points="2.76 15.9 11.61 20.71 11.5 20.95 2.64 16.14 2.76 15.9"/>
                  </g>
                </g>
                <g class="cls-18">
                  <g>
                    <polygon class="cls-1" points="11.3 21.38 2.44 16.57 2.83 15.74 11.69 20.56 11.3 21.38"/>
                    <polygon class="cls-22" points="11.37 21.23 2.51 16.41 2.63 16.17 11.49 20.99 11.37 21.23"/>
                  </g>
                </g>
              </g>
              <g>
                <g>
                  <g class="cls-14">
                    <g>
                      <polygon class="cls-1" points="2.83 15.74 11.69 20.56 11.3 21.38 2.44 16.57 2.83 15.74"/>
                      <polygon class="cls-22" points="2.76 15.9 11.61 20.71 11.5 20.95 2.64 16.14 2.76 15.9"/>
                    </g>
                  </g>
                  <g class="cls-20">
                    <g>
                      <polygon class="cls-1" points="11.3 21.38 2.44 16.57 2.83 15.74 11.69 20.56 11.3 21.38"/>
                      <polygon class="cls-22" points="11.37 21.23 2.51 16.41 2.63 16.17 11.49 20.99 11.37 21.23"/>
                    </g>
                  </g>
                </g>
                <g>
                  <g class="cls-10">
                    <g>
                      <polygon class="cls-1" points="11.96 15.74 3.1 20.56 3.48 21.38 12.34 16.57 11.96 15.74"/>
                      <polygon class="cls-22" points="12.03 15.9 3.17 20.71 3.28 20.95 12.14 16.14 12.03 15.9"/>
                    </g>
                  </g>
                  <g class="cls-11">
                    <g>
                      <polygon class="cls-1" points="3.48 21.38 12.34 16.57 11.96 15.74 3.1 20.56 3.48 21.38"/>
                      <polygon class="cls-22" points="3.41 21.23 12.27 16.41 12.16 16.17 3.3 20.99 3.41 21.23"/>
                    </g>
                  </g>
                </g>
              </g>
              <rect class="cls-1" x="3.3" y="17.99" width="8.16" height="1.46"/>
              <g>
                <rect class="cls-1" x="6.68" y="16.52" width="1.35" height="4.41"/>
                <rect class="cls-22" x="6.94" y="16.52" width=".84" height="4.41"/>
              </g>
              <rect class="cls-22" x="3.3" y="18.27" width="8.16" height=".91"/>
            </g>
          </g>
        </g>
      </g>
      <g>
        <g class="cls-16">
          <g>
            <g>
              <g>
                <rect class="cls-12" x="12.57" y="9.27" width="40.76" height="1.65"/>
                <rect class="cls-12" x="12.57" y="29.08" width="40.76" height="1.65"/>
                <rect class="cls-12" x="12.57" y="25.78" width="40.76" height="1.65"/>
                <rect class="cls-12" x="12.57" y="22.48" width="40.76" height="1.65"/>
                <rect class="cls-12" x="12.57" y="19.17" width="40.76" height="1.65"/>
                <rect class="cls-12" x="12.57" y="15.87" width="40.76" height="1.65"/>
                <rect class="cls-12" x="12.57" y="12.57" width="40.76" height="1.65"/>
              </g>
              <g>
                <rect class="cls-1" x="12.57" y="27.43" width="40.76" height="1.65"/>
                <rect class="cls-1" x="12.57" y="24.13" width="40.76" height="1.65"/>
                <rect class="cls-1" x="12.57" y="20.83" width="40.76" height="1.65"/>
                <rect class="cls-1" x="12.57" y="17.52" width="40.76" height="1.65"/>
                <rect class="cls-1" x="12.57" y="14.22" width="40.76" height="1.65"/>
                <rect class="cls-1" x="12.57" y="10.92" width="40.76" height="1.65"/>
              </g>
            </g>
            <rect class="cls-2" x="12.57" y="9.27" width="16.3" height="11.55"/>
            <g>
              <polygon class="cls-1" points="13.93 9.77 13.78 10.23 13.3 10.23 13.69 10.51 13.54 10.96 13.93 10.68 14.32 10.96 14.17 10.51 14.56 10.23 14.08 10.23 13.93 9.77"/>
              <polygon class="cls-1" points="16.65 9.77 16.5 10.23 16.02 10.23 16.41 10.51 16.26 10.96 16.65 10.68 17.04 10.96 16.89 10.51 17.28 10.23 16.8 10.23 16.65 9.77"/>
              <polygon class="cls-1" points="19.36 9.77 19.22 10.23 18.74 10.23 19.12 10.51 18.98 10.96 19.36 10.68 19.75 10.96 19.6 10.51 19.99 10.23 19.51 10.23 19.36 9.77"/>
              <polygon class="cls-1" points="22.08 9.77 21.93 10.23 21.45 10.23 21.84 10.51 21.69 10.96 22.08 10.68 22.47 10.96 22.32 10.51 22.71 10.23 22.23 10.23 22.08 9.77"/>
              <polygon class="cls-1" points="24.8 9.77 24.65 10.23 24.17 10.23 24.56 10.51 24.41 10.96 24.8 10.68 25.19 10.96 25.04 10.51 25.43 10.23 24.95 10.23 24.8 9.77"/>
              <polygon class="cls-1" points="27.13 10.96 27.52 10.68 27.9 10.96 27.76 10.51 28.14 10.23 27.66 10.23 27.52 9.77 27.37 10.23 26.89 10.23 27.28 10.51 27.13 10.96"/>
              <polygon class="cls-1" points="13.93 12.08 13.78 12.54 13.3 12.54 13.69 12.82 13.54 13.27 13.93 12.99 14.32 13.27 14.17 12.82 14.56 12.54 14.08 12.54 13.93 12.08"/>
              <polygon class="cls-1" points="16.65 12.08 16.5 12.54 16.02 12.54 16.41 12.82 16.26 13.27 16.65 12.99 17.04 13.27 16.89 12.82 17.28 12.54 16.8 12.54 16.65 12.08"/>
              <polygon class="cls-1" points="19.36 12.08 19.22 12.54 18.74 12.54 19.12 12.82 18.98 13.27 19.36 12.99 19.75 13.27 19.6 12.82 19.99 12.54 19.51 12.54 19.36 12.08"/>
              <polygon class="cls-1" points="22.08 12.08 21.93 12.54 21.45 12.54 21.84 12.82 21.69 13.27 22.08 12.99 22.47 13.27 22.32 12.82 22.71 12.54 22.23 12.54 22.08 12.08"/>
              <polygon class="cls-1" points="24.8 12.08 24.65 12.54 24.17 12.54 24.56 12.82 24.41 13.27 24.8 12.99 25.19 13.27 25.04 12.82 25.43 12.54 24.95 12.54 24.8 12.08"/>
              <polygon class="cls-1" points="27.52 12.08 27.37 12.54 26.89 12.54 27.28 12.82 27.13 13.27 27.52 12.99 27.9 13.27 27.76 12.82 28.14 12.54 27.66 12.54 27.52 12.08"/>
              <polygon class="cls-1" points="13.93 14.39 13.78 14.85 13.3 14.85 13.69 15.13 13.54 15.58 13.93 15.3 14.32 15.58 14.17 15.13 14.56 14.85 14.08 14.85 13.93 14.39"/>
              <polygon class="cls-1" points="16.65 14.39 16.5 14.85 16.02 14.85 16.41 15.13 16.26 15.58 16.65 15.3 17.04 15.58 16.89 15.13 17.28 14.85 16.8 14.85 16.65 14.39"/>
              <polygon class="cls-1" points="19.36 14.39 19.22 14.85 18.74 14.85 19.12 15.13 18.98 15.58 19.36 15.3 19.75 15.58 19.6 15.13 19.99 14.85 19.51 14.85 19.36 14.39"/>
              <polygon class="cls-1" points="22.08 14.39 21.93 14.85 21.45 14.85 21.84 15.13 21.69 15.58 22.08 15.3 22.47 15.58 22.32 15.13 22.71 14.85 22.23 14.85 22.08 14.39"/>
              <polygon class="cls-1" points="24.8 14.39 24.65 14.85 24.17 14.85 24.56 15.13 24.41 15.58 24.8 15.3 25.19 15.58 25.04 15.13 25.43 14.85 24.95 14.85 24.8 14.39"/>
              <polygon class="cls-1" points="27.52 14.39 27.37 14.85 26.89 14.85 27.28 15.13 27.13 15.58 27.52 15.3 27.9 15.58 27.76 15.13 28.14 14.85 27.66 14.85 27.52 14.39"/>
              <polygon class="cls-1" points="13.93 16.7 13.78 17.16 13.3 17.16 13.69 17.44 13.54 17.89 13.93 17.61 14.32 17.89 14.17 17.44 14.56 17.16 14.08 17.16 13.93 16.7"/>
              <polygon class="cls-1" points="16.65 16.7 16.5 17.16 16.02 17.16 16.41 17.44 16.26 17.89 16.65 17.61 17.04 17.89 16.89 17.44 17.28 17.16 16.8 17.16 16.65 16.7"/>
              <polygon class="cls-1" points="19.36 16.7 19.22 17.16 18.74 17.16 19.12 17.44 18.98 17.89 19.36 17.61 19.75 17.89 19.6 17.44 19.99 17.16 19.51 17.16 19.36 16.7"/>
              <polygon class="cls-1" points="22.08 16.7 21.93 17.16 21.45 17.16 21.84 17.44 21.69 17.89 22.08 17.61 22.47 17.89 22.32 17.44 22.71 17.16 22.23 17.16 22.08 16.7"/>
              <polygon class="cls-1" points="24.8 16.7 24.65 17.16 24.17 17.16 24.56 17.44 24.41 17.89 24.8 17.61 25.19 17.89 25.04 17.44 25.43 17.16 24.95 17.16 24.8 16.7"/>
              <polygon class="cls-1" points="27.52 16.7 27.37 17.16 26.89 17.16 27.28 17.44 27.13 17.89 27.52 17.61 27.9 17.89 27.76 17.44 28.14 17.16 27.66 17.16 27.52 16.7"/>
              <polygon class="cls-1" points="14.08 19.47 13.93 19.01 13.78 19.47 13.3 19.47 13.69 19.75 13.54 20.2 13.93 19.92 14.32 20.2 14.17 19.75 14.56 19.47 14.08 19.47"/>
              <polygon class="cls-1" points="16.8 19.47 16.65 19.01 16.5 19.47 16.02 19.47 16.41 19.75 16.26 20.2 16.65 19.92 17.04 20.2 16.89 19.75 17.28 19.47 16.8 19.47"/>
              <polygon class="cls-1" points="19.51 19.47 19.36 19.01 19.22 19.47 18.74 19.47 19.12 19.75 18.98 20.2 19.36 19.92 19.75 20.2 19.6 19.75 19.99 19.47 19.51 19.47"/>
              <polygon class="cls-1" points="22.23 19.47 22.08 19.01 21.93 19.47 21.45 19.47 21.84 19.75 21.69 20.2 22.08 19.92 22.47 20.2 22.32 19.75 22.71 19.47 22.23 19.47"/>
              <polygon class="cls-1" points="24.95 19.47 24.8 19.01 24.65 19.47 24.17 19.47 24.56 19.75 24.41 20.2 24.8 19.92 25.19 20.2 25.04 19.75 25.43 19.47 24.95 19.47"/>
              <polygon class="cls-1" points="27.66 19.47 27.52 19.01 27.37 19.47 26.89 19.47 27.28 19.75 27.13 20.2 27.52 19.92 27.9 20.2 27.76 19.75 28.14 19.47 27.66 19.47"/>
              <polygon class="cls-1" points="15.29 10.92 15.14 11.38 14.66 11.38 15.05 11.66 14.9 12.12 15.29 11.84 15.68 12.12 15.53 11.66 15.92 11.38 15.44 11.38 15.29 10.92"/>
              <polygon class="cls-1" points="18.01 10.92 17.86 11.38 17.38 11.38 17.77 11.66 17.62 12.12 18.01 11.84 18.39 12.12 18.25 11.66 18.63 11.38 18.15 11.38 18.01 10.92"/>
              <polygon class="cls-1" points="20.72 10.92 20.57 11.38 20.09 11.38 20.48 11.66 20.33 12.12 20.72 11.84 21.11 12.12 20.96 11.66 21.35 11.38 20.87 11.38 20.72 10.92"/>
              <polygon class="cls-1" points="23.44 10.92 23.29 11.38 22.81 11.38 23.2 11.66 23.05 12.12 23.44 11.84 23.83 12.12 23.68 11.66 24.07 11.38 23.59 11.38 23.44 10.92"/>
              <polygon class="cls-1" points="26.16 10.92 26.01 11.38 25.53 11.38 25.92 11.66 25.77 12.12 26.16 11.84 26.55 12.12 26.4 11.66 26.79 11.38 26.31 11.38 26.16 10.92"/>
              <polygon class="cls-1" points="15.29 13.23 15.14 13.69 14.66 13.69 15.05 13.97 14.9 14.43 15.29 14.15 15.68 14.43 15.53 13.97 15.92 13.69 15.44 13.69 15.29 13.23"/>
              <polygon class="cls-1" points="18.01 13.23 17.86 13.69 17.38 13.69 17.77 13.97 17.62 14.43 18.01 14.15 18.39 14.43 18.25 13.97 18.63 13.69 18.15 13.69 18.01 13.23"/>
              <polygon class="cls-1" points="20.72 13.23 20.57 13.69 20.09 13.69 20.48 13.97 20.33 14.43 20.72 14.15 21.11 14.43 20.96 13.97 21.35 13.69 20.87 13.69 20.72 13.23"/>
              <polygon class="cls-1" points="23.44 13.23 23.29 13.69 22.81 13.69 23.2 13.97 23.05 14.43 23.44 14.15 23.83 14.43 23.68 13.97 24.07 13.69 23.59 13.69 23.44 13.23"/>
              <polygon class="cls-1" points="26.16 13.23 26.01 13.69 25.53 13.69 25.92 13.97 25.77 14.43 26.16 14.15 26.55 14.43 26.4 13.97 26.79 13.69 26.31 13.69 26.16 13.23"/>
              <polygon class="cls-1" points="15.29 15.54 15.14 16 14.66 16 15.05 16.28 14.9 16.74 15.29 16.46 15.68 16.74 15.53 16.28 15.92 16 15.44 16 15.29 15.54"/>
              <polygon class="cls-1" points="18.01 15.54 17.86 16 17.38 16 17.77 16.28 17.62 16.74 18.01 16.46 18.39 16.74 18.25 16.28 18.63 16 18.15 16 18.01 15.54"/>
              <polygon class="cls-1" points="20.72 15.54 20.57 16 20.09 16 20.48 16.28 20.33 16.74 20.72 16.46 21.11 16.74 20.96 16.28 21.35 16 20.87 16 20.72 15.54"/>
              <polygon class="cls-1" points="23.44 15.54 23.29 16 22.81 16 23.2 16.28 23.05 16.74 23.44 16.46 23.83 16.74 23.68 16.28 24.07 16 23.59 16 23.44 15.54"/>
              <polygon class="cls-1" points="26.16 15.54 26.01 16 25.53 16 25.92 16.28 25.77 16.74 26.16 16.46 26.55 16.74 26.4 16.28 26.79 16 26.31 16 26.16 15.54"/>
              <polygon class="cls-1" points="15.44 18.31 15.29 17.85 15.14 18.31 14.66 18.31 15.05 18.59 14.9 19.05 15.29 18.77 15.68 19.05 15.53 18.59 15.92 18.31 15.44 18.31"/>
              <polygon class="cls-1" points="18.15 18.31 18.01 17.85 17.86 18.31 17.38 18.31 17.77 18.59 17.62 19.05 18.01 18.77 18.39 19.05 18.25 18.59 18.63 18.31 18.15 18.31"/>
              <polygon class="cls-1" points="20.87 18.31 20.72 17.85 20.57 18.31 20.09 18.31 20.48 18.59 20.33 19.05 20.72 18.77 21.11 19.05 20.96 18.59 21.35 18.31 20.87 18.31"/>
              <polygon class="cls-1" points="23.59 18.31 23.44 17.85 23.29 18.31 22.81 18.31 23.2 18.59 23.05 19.05 23.44 18.77 23.83 19.05 23.68 18.59 24.07 18.31 23.59 18.31"/>
              <polygon class="cls-1" points="26.31 18.31 26.16 17.85 26.01 18.31 25.53 18.31 25.92 18.59 25.77 19.05 26.16 18.77 26.55 19.05 26.4 18.59 26.79 18.31 26.31 18.31"/>
            </g>
          </g>
        </g>
        <circle class="cls-3" cx="28.87" cy="20" r="10.73"/>
      </g>
    </g>
  </g>
</svg>