<?xml version="1.0" encoding="UTF-8"?>
<svg id="Layer_1" data-name="Layer 1" xmlns="http://www.w3.org/2000/svg" xmlns:xlink="http://www.w3.org/1999/xlink" viewBox="0 0 40 40">
  <defs>
    <style>
      .cls-1 {
        fill: #fff;
      }

      .cls-2 {
        fill: #002a70;
      }

      .cls-3 {
        stroke: #fff;
        stroke-miterlimit: 10;
      }

      .cls-3, .cls-4 {
        fill: none;
      }

      .cls-5 {
        clip-path: url(#clippath-2);
      }

      .cls-6 {
        fill: #b01820;
      }

      .cls-7 {
        clip-path: url(#clippath-1);
      }

      .cls-8 {
        fill: #e80010;
      }

      .cls-9 {
        clip-path: url(#clippath);
      }

      .cls-10 {
        fill: #0c1288;
      }

      .cls-11 {
        clip-path: url(#clippath-3);
      }

      .cls-12 {
        fill: #ec060c;
      }
    </style>
    <clipPath id="clippath">
      <circle class="cls-4" cx="11.13" cy="20" r="10.73"/>
    </clipPath>
    <clipPath id="clippath-1">
      <rect class="cls-4" x="-6.04" y="9.27" width="17.16" height="10.01"/>
    </clipPath>
    <clipPath id="clippath-2">
      <circle class="cls-4" cx="11.13" cy="20" r="10.73"/>
    </clipPath>
    <clipPath id="clippath-3">
      <circle class="cls-3" cx="28.87" cy="20" r="10.73"/>
    </clipPath>
  </defs>
  <g class="cls-9">
    <g>
      <rect class="cls-10" x="-6.04" y="9.27" width="34.32" height="22.88"/>
      <g>
        <g>
          <rect class="cls-10" x="-6.04" y="9.99" width="17.16" height="8.58"/>
          <g class="cls-7">
            <g>
              <g>
                <g>
                  <rect class="cls-1" x="-8.9" y="13.42" width="22.88" height="1.72" transform="translate(6.65 .37) rotate(26.56)"/>
                  <g>
                    <rect class="cls-12" x="-2.99" y="6.26" width=".57" height="11.44" transform="translate(-12.21 4.21) rotate(-63.44)"/>
                    <rect class="cls-12" x="7.5" y="10.86" width=".57" height="11.44" transform="translate(-10.53 16.13) rotate(-63.44)"/>
                  </g>
                </g>
                <g>
                  <rect class="cls-1" x="-8.9" y="13.42" width="22.88" height="1.72" transform="translate(-6.12 2.65) rotate(-26.56)"/>
                  <g>
                    <rect class="cls-12" x="-8.16" y="16.81" width="11.44" height=".57" transform="translate(-7.9 .71) rotate(-26.56)"/>
                    <rect class="cls-12" x="1.81" y="11.18" width="11.44" height=".57" transform="translate(-4.33 4.58) rotate(-26.56)"/>
                  </g>
                </g>
              </g>
              <g>
                <polygon class="cls-1" points="12.56 12.85 3.98 12.85 3.98 8.56 1.12 8.56 1.12 12.85 -7.47 12.85 -7.47 15.71 1.12 15.71 1.12 20 3.98 20 3.98 15.71 12.56 15.71 12.56 12.85"/>
                <polygon class="cls-12" points="12.56 13.42 3.4 13.42 3.4 8.56 1.69 8.56 1.69 13.42 -7.47 13.42 -7.47 15.14 1.69 15.14 1.69 20 3.4 20 3.4 15.14 12.56 15.14 12.56 13.42"/>
              </g>
            </g>
          </g>
        </g>
        <g>
          <polygon class="cls-1" points="19.14 24.16 19.6 23.46 18.82 23.76 18.56 22.97 18.3 23.76 17.52 23.46 17.98 24.16 17.27 24.58 18.1 24.66 17.98 25.48 18.56 24.88 19.14 25.48 19.02 24.66 19.85 24.58 19.14 24.16"/>
          <polygon class="cls-1" points="3.67 22.17 4.57 20.82 3.04 21.4 2.54 19.86 2.04 21.4 .52 20.82 1.41 22.17 .03 23 1.64 23.14 1.42 24.75 2.54 23.57 3.67 24.75 3.44 23.14 5.06 23 3.67 22.17"/>
          <polygon class="cls-1" points="20.44 19.06 20.28 18.57 20.12 19.06 19.6 19.06 20.02 19.37 19.86 19.86 20.28 19.56 20.7 19.86 20.54 19.37 20.96 19.06 20.44 19.06"/>
          <polygon class="cls-1" points="14.86 17.37 15.32 16.67 14.54 16.97 14.28 16.18 14.02 16.97 13.24 16.67 13.7 17.37 12.99 17.79 13.82 17.86 13.71 18.69 14.28 18.08 14.86 18.69 14.74 17.86 15.57 17.79 14.86 17.37"/>
          <polygon class="cls-1" points="23.67 16.65 22.95 16.22 23.41 15.53 22.63 15.83 22.37 15.03 22.12 15.83 21.34 15.53 21.79 16.22 21.09 16.65 21.91 16.72 21.8 17.54 22.37 16.94 22.95 17.54 22.84 16.72 23.67 16.65"/>
          <polygon class="cls-1" points="18.1 13.22 17.98 14.04 18.56 13.44 19.14 14.04 19.02 13.22 19.85 13.14 19.14 12.72 19.6 12.02 18.82 12.32 18.56 11.53 18.3 12.32 17.52 12.02 17.98 12.72 17.27 13.14 18.1 13.22"/>
        </g>
      </g>
    </g>
  </g>
  <g>
    <g class="cls-5">
      <g>
        <rect class="cls-8" x="-4.96" y="9.27" width="32.18" height="21.45"/>
        <polygon class="cls-1" points="16.49 18.39 12.73 18.39 12.73 14.64 9.52 14.64 9.52 18.39 5.76 18.39 5.76 21.61 9.52 21.61 9.52 25.36 12.73 25.36 12.73 21.61 16.49 21.61 16.49 18.39"/>
      </g>
    </g>
    <g>
      <g class="cls-11">
        <g>
          <g>
            <g>
              <rect class="cls-6" x="12.57" y="9.27" width="40.76" height="1.65"/>
              <rect class="cls-6" x="12.57" y="29.08" width="40.76" height="1.65"/>
              <rect class="cls-6" x="12.57" y="25.78" width="40.76" height="1.65"/>
              <rect class="cls-6" x="12.57" y="22.48" width="40.76" height="1.65"/>
              <rect class="cls-6" x="12.57" y="19.17" width="40.76" height="1.65"/>
              <rect class="cls-6" x="12.57" y="15.87" width="40.76" height="1.65"/>
              <rect class="cls-6" x="12.57" y="12.57" width="40.76" height="1.65"/>
            </g>
            <g>
              <rect class="cls-1" x="12.57" y="27.43" width="40.76" height="1.65"/>
              <rect class="cls-1" x="12.57" y="24.13" width="40.76" height="1.65"/>
              <rect class="cls-1" x="12.57" y="20.83" width="40.76" height="1.65"/>
              <rect class="cls-1" x="12.57" y="17.52" width="40.76" height="1.65"/>
              <rect class="cls-1" x="12.57" y="14.22" width="40.76" height="1.65"/>
              <rect class="cls-1" x="12.57" y="10.92" width="40.76" height="1.65"/>
            </g>
          </g>
          <rect class="cls-2" x="12.57" y="9.27" width="16.3" height="11.55"/>
          <g>
            <polygon class="cls-1" points="13.93 9.77 13.78 10.23 13.3 10.23 13.69 10.51 13.54 10.96 13.93 10.68 14.32 10.96 14.17 10.51 14.56 10.23 14.08 10.23 13.93 9.77"/>
            <polygon class="cls-1" points="16.65 9.77 16.5 10.23 16.02 10.23 16.41 10.51 16.26 10.96 16.65 10.68 17.04 10.96 16.89 10.51 17.28 10.23 16.8 10.23 16.65 9.77"/>
            <polygon class="cls-1" points="19.36 9.77 19.22 10.23 18.74 10.23 19.12 10.51 18.98 10.96 19.36 10.68 19.75 10.96 19.6 10.51 19.99 10.23 19.51 10.23 19.36 9.77"/>
            <polygon class="cls-1" points="22.08 9.77 21.93 10.23 21.45 10.23 21.84 10.51 21.69 10.96 22.08 10.68 22.47 10.96 22.32 10.51 22.71 10.23 22.23 10.23 22.08 9.77"/>
            <polygon class="cls-1" points="24.8 9.77 24.65 10.23 24.17 10.23 24.56 10.51 24.41 10.96 24.8 10.68 25.19 10.96 25.04 10.51 25.43 10.23 24.95 10.23 24.8 9.77"/>
            <polygon class="cls-1" points="27.13 10.96 27.52 10.68 27.9 10.96 27.76 10.51 28.14 10.23 27.66 10.23 27.52 9.77 27.37 10.23 26.89 10.23 27.28 10.51 27.13 10.96"/>
            <polygon class="cls-1" points="13.93 12.08 13.78 12.54 13.3 12.54 13.69 12.82 13.54 13.27 13.93 12.99 14.32 13.27 14.17 12.82 14.56 12.54 14.08 12.54 13.93 12.08"/>
            <polygon class="cls-1" points="16.65 12.08 16.5 12.54 16.02 12.54 16.41 12.82 16.26 13.27 16.65 12.99 17.04 13.27 16.89 12.82 17.28 12.54 16.8 12.54 16.65 12.08"/>
            <polygon class="cls-1" points="19.36 12.08 19.22 12.54 18.74 12.54 19.12 12.82 18.98 13.27 19.36 12.99 19.75 13.27 19.6 12.82 19.99 12.54 19.51 12.54 19.36 12.08"/>
            <polygon class="cls-1" points="22.08 12.08 21.93 12.54 21.45 12.54 21.84 12.82 21.69 13.27 22.08 12.99 22.47 13.27 22.32 12.82 22.71 12.54 22.23 12.54 22.08 12.08"/>
            <polygon class="cls-1" points="24.8 12.08 24.65 12.54 24.17 12.54 24.56 12.82 24.41 13.27 24.8 12.99 25.19 13.27 25.04 12.82 25.43 12.54 24.95 12.54 24.8 12.08"/>
            <polygon class="cls-1" points="27.52 12.08 27.37 12.54 26.89 12.54 27.28 12.82 27.13 13.27 27.52 12.99 27.9 13.27 27.76 12.82 28.14 12.54 27.66 12.54 27.52 12.08"/>
            <polygon class="cls-1" points="13.93 14.39 13.78 14.85 13.3 14.85 13.69 15.13 13.54 15.58 13.93 15.3 14.32 15.58 14.17 15.13 14.56 14.85 14.08 14.85 13.93 14.39"/>
            <polygon class="cls-1" points="16.65 14.39 16.5 14.85 16.02 14.85 16.41 15.13 16.26 15.58 16.65 15.3 17.04 15.58 16.89 15.13 17.28 14.85 16.8 14.85 16.65 14.39"/>
            <polygon class="cls-1" points="19.36 14.39 19.22 14.85 18.74 14.85 19.12 15.13 18.98 15.58 19.36 15.3 19.75 15.58 19.6 15.13 19.99 14.85 19.51 14.85 19.36 14.39"/>
            <polygon class="cls-1" points="22.08 14.39 21.93 14.85 21.45 14.85 21.84 15.13 21.69 15.58 22.08 15.3 22.47 15.58 22.32 15.13 22.71 14.85 22.23 14.85 22.08 14.39"/>
            <polygon class="cls-1" points="24.8 14.39 24.65 14.85 24.17 14.85 24.56 15.13 24.41 15.58 24.8 15.3 25.19 15.58 25.04 15.13 25.43 14.85 24.95 14.85 24.8 14.39"/>
            <polygon class="cls-1" points="27.52 14.39 27.37 14.85 26.89 14.85 27.28 15.13 27.13 15.58 27.52 15.3 27.9 15.58 27.76 15.13 28.14 14.85 27.66 14.85 27.52 14.39"/>
            <polygon class="cls-1" points="13.93 16.7 13.78 17.16 13.3 17.16 13.69 17.44 13.54 17.89 13.93 17.61 14.32 17.89 14.17 17.44 14.56 17.16 14.08 17.16 13.93 16.7"/>
            <polygon class="cls-1" points="16.65 16.7 16.5 17.16 16.02 17.16 16.41 17.44 16.26 17.89 16.65 17.61 17.04 17.89 16.89 17.44 17.28 17.16 16.8 17.16 16.65 16.7"/>
            <polygon class="cls-1" points="19.36 16.7 19.22 17.16 18.74 17.16 19.12 17.44 18.98 17.89 19.36 17.61 19.75 17.89 19.6 17.44 19.99 17.16 19.51 17.16 19.36 16.7"/>
            <polygon class="cls-1" points="22.08 16.7 21.93 17.16 21.45 17.16 21.84 17.44 21.69 17.89 22.08 17.61 22.47 17.89 22.32 17.44 22.71 17.16 22.23 17.16 22.08 16.7"/>
            <polygon class="cls-1" points="24.8 16.7 24.65 17.16 24.17 17.16 24.56 17.44 24.41 17.89 24.8 17.61 25.19 17.89 25.04 17.44 25.43 17.16 24.95 17.16 24.8 16.7"/>
            <polygon class="cls-1" points="27.52 16.7 27.37 17.16 26.89 17.16 27.28 17.44 27.13 17.89 27.52 17.61 27.9 17.89 27.76 17.44 28.14 17.16 27.66 17.16 27.52 16.7"/>
            <polygon class="cls-1" points="14.08 19.47 13.93 19.01 13.78 19.47 13.3 19.47 13.69 19.75 13.54 20.2 13.93 19.92 14.32 20.2 14.17 19.75 14.56 19.47 14.08 19.47"/>
            <polygon class="cls-1" points="16.8 19.47 16.65 19.01 16.5 19.47 16.02 19.47 16.41 19.75 16.26 20.2 16.65 19.92 17.04 20.2 16.89 19.75 17.28 19.47 16.8 19.47"/>
            <polygon class="cls-1" points="19.51 19.47 19.36 19.01 19.22 19.47 18.74 19.47 19.12 19.75 18.98 20.2 19.36 19.92 19.75 20.2 19.6 19.75 19.99 19.47 19.51 19.47"/>
            <polygon class="cls-1" points="22.23 19.47 22.08 19.01 21.93 19.47 21.45 19.47 21.84 19.75 21.69 20.2 22.08 19.92 22.47 20.2 22.32 19.75 22.71 19.47 22.23 19.47"/>
            <polygon class="cls-1" points="24.95 19.47 24.8 19.01 24.65 19.47 24.17 19.47 24.56 19.75 24.41 20.2 24.8 19.92 25.19 20.2 25.04 19.75 25.43 19.47 24.95 19.47"/>
            <polygon class="cls-1" points="27.66 19.47 27.52 19.01 27.37 19.47 26.89 19.47 27.28 19.75 27.13 20.2 27.52 19.92 27.9 20.2 27.76 19.75 28.14 19.47 27.66 19.47"/>
            <polygon class="cls-1" points="15.29 10.92 15.14 11.38 14.66 11.38 15.05 11.66 14.9 12.12 15.29 11.84 15.68 12.12 15.53 11.66 15.92 11.38 15.44 11.38 15.29 10.92"/>
            <polygon class="cls-1" points="18.01 10.92 17.86 11.38 17.38 11.38 17.77 11.66 17.62 12.12 18.01 11.84 18.39 12.12 18.25 11.66 18.63 11.38 18.15 11.38 18.01 10.92"/>
            <polygon class="cls-1" points="20.72 10.92 20.57 11.38 20.09 11.38 20.48 11.66 20.33 12.12 20.72 11.84 21.11 12.12 20.96 11.66 21.35 11.38 20.87 11.38 20.72 10.92"/>
            <polygon class="cls-1" points="23.44 10.92 23.29 11.38 22.81 11.38 23.2 11.66 23.05 12.12 23.44 11.84 23.83 12.12 23.68 11.66 24.07 11.38 23.59 11.38 23.44 10.92"/>
            <polygon class="cls-1" points="26.16 10.92 26.01 11.38 25.53 11.38 25.92 11.66 25.77 12.12 26.16 11.84 26.55 12.12 26.4 11.66 26.79 11.38 26.31 11.38 26.16 10.92"/>
            <polygon class="cls-1" points="15.29 13.23 15.14 13.69 14.66 13.69 15.05 13.97 14.9 14.43 15.29 14.15 15.68 14.43 15.53 13.97 15.92 13.69 15.44 13.69 15.29 13.23"/>
            <polygon class="cls-1" points="18.01 13.23 17.86 13.69 17.38 13.69 17.77 13.97 17.62 14.43 18.01 14.15 18.39 14.43 18.25 13.97 18.63 13.69 18.15 13.69 18.01 13.23"/>
            <polygon class="cls-1" points="20.72 13.23 20.57 13.69 20.09 13.69 20.48 13.97 20.33 14.43 20.72 14.15 21.11 14.43 20.96 13.97 21.35 13.69 20.87 13.69 20.72 13.23"/>
            <polygon class="cls-1" points="23.44 13.23 23.29 13.69 22.81 13.69 23.2 13.97 23.05 14.43 23.44 14.15 23.83 14.43 23.68 13.97 24.07 13.69 23.59 13.69 23.44 13.23"/>
            <polygon class="cls-1" points="26.16 13.23 26.01 13.69 25.53 13.69 25.92 13.97 25.77 14.43 26.16 14.15 26.55 14.43 26.4 13.97 26.79 13.69 26.31 13.69 26.16 13.23"/>
            <polygon class="cls-1" points="15.29 15.54 15.14 16 14.66 16 15.05 16.28 14.9 16.74 15.29 16.46 15.68 16.74 15.53 16.28 15.92 16 15.44 16 15.29 15.54"/>
            <polygon class="cls-1" points="18.01 15.54 17.86 16 17.38 16 17.77 16.28 17.62 16.74 18.01 16.46 18.39 16.74 18.25 16.28 18.63 16 18.15 16 18.01 15.54"/>
            <polygon class="cls-1" points="20.72 15.54 20.57 16 20.09 16 20.48 16.28 20.33 16.74 20.72 16.46 21.11 16.74 20.96 16.28 21.35 16 20.87 16 20.72 15.54"/>
            <polygon class="cls-1" points="23.44 15.54 23.29 16 22.81 16 23.2 16.28 23.05 16.74 23.44 16.46 23.83 16.74 23.68 16.28 24.07 16 23.59 16 23.44 15.54"/>
            <polygon class="cls-1" points="26.16 15.54 26.01 16 25.53 16 25.92 16.28 25.77 16.74 26.16 16.46 26.55 16.74 26.4 16.28 26.79 16 26.31 16 26.16 15.54"/>
            <polygon class="cls-1" points="15.44 18.31 15.29 17.85 15.14 18.31 14.66 18.31 15.05 18.59 14.9 19.05 15.29 18.77 15.68 19.05 15.53 18.59 15.92 18.31 15.44 18.31"/>
            <polygon class="cls-1" points="18.15 18.31 18.01 17.85 17.86 18.31 17.38 18.31 17.77 18.59 17.62 19.05 18.01 18.77 18.39 19.05 18.25 18.59 18.63 18.31 18.15 18.31"/>
            <polygon class="cls-1" points="20.87 18.31 20.72 17.85 20.57 18.31 20.09 18.31 20.48 18.59 20.33 19.05 20.72 18.77 21.11 19.05 20.96 18.59 21.35 18.31 20.87 18.31"/>
            <polygon class="cls-1" points="23.59 18.31 23.44 17.85 23.29 18.31 22.81 18.31 23.2 18.59 23.05 19.05 23.44 18.77 23.83 19.05 23.68 18.59 24.07 18.31 23.59 18.31"/>
            <polygon class="cls-1" points="26.31 18.31 26.16 17.85 26.01 18.31 25.53 18.31 25.92 18.59 25.77 19.05 26.16 18.77 26.55 19.05 26.4 18.59 26.79 18.31 26.31 18.31"/>
          </g>
        </g>
      </g>
      <circle class="cls-3" cx="28.87" cy="20" r="10.73"/>
    </g>
  </g>
</svg>