<svg width="32" height="32" viewBox="0 0 32 32" fill="none" xmlns="http://www.w3.org/2000/svg">
<g id="Frame 1000002852">
<path id="Vector" d="M1.10352 12.6895H30.8966V22.6205H1.10352V12.6895Z" fill="#D68029"/>
<path id="Vector_2" d="M9.93066 2.75879H12.1376V7.17258H9.93066V2.75879Z" fill="#4895AA"/>
<path id="Vector_3" d="M19.8623 2.75879H22.0692V7.17258H19.8623V2.75879Z" fill="#4895AA"/>
<path id="Vector_4" d="M1.10352 6.62061H30.8966V13.2413H1.10352V6.62061Z" fill="#FEAC4F"/>
<path id="Vector_5" d="M1.10352 6.62061H30.8966C29.8368 7.68039 28.3995 8.27578 26.9007 8.27578H4.39945C3.87926 8.27578 3.36416 8.17332 2.88357 7.97425C2.40298 7.77518 1.96631 7.4834 1.59848 7.11557L1.10352 6.62061Z" fill="#FFD199"/>
<path id="Vector_6" d="M1.10352 7.17236V13.2413H2.20696V9.25788C2.20697 8.94653 2.14564 8.63823 2.02649 8.35058C1.90735 8.06292 1.73271 7.80156 1.51255 7.5814L1.10352 7.17236Z" fill="#FFD199"/>
<path id="Vector_7" d="M11.0036 0H20.9956C21.2802 0 21.5531 0.113044 21.7543 0.314264C21.9556 0.515484 22.0686 0.788397 22.0686 1.07297V3.31034H9.93066V1.07297C9.93066 0.788397 10.0437 0.515484 10.2449 0.314264C10.4461 0.113044 10.7191 0 11.0036 0Z" fill="#0A4566"/>
<path id="Vector_8" d="M22.6211 22.0689L25.2947 19.3953C25.7024 18.9876 25.9314 18.4346 25.9314 17.858V17.1703C25.9314 16.7993 26.0045 16.4318 26.1465 16.089C26.2885 15.7462 26.4966 15.4347 26.759 15.1723C27.0214 14.9099 27.3329 14.7018 27.6757 14.5598C28.0185 14.4178 28.386 14.3447 28.757 14.3447H29.0132C29.5128 14.3447 29.992 14.5432 30.3452 14.8965L28.1383 17.1033L29.2418 18.2068L31.4487 15.9999C31.8019 16.3532 32.0004 16.8323 32.0004 17.3319V17.5881C32.0004 17.9592 31.9273 18.3266 31.7853 18.6694C31.6433 19.0122 31.4352 19.3237 31.1728 19.5861C30.9104 19.8485 30.5989 20.0566 30.2561 20.1986C29.9133 20.3406 29.5459 20.4137 29.1748 20.4137H28.4871C27.9105 20.4137 27.3576 20.6427 26.9499 21.0505L25.9314 22.0689H22.6211Z" fill="#96D6E4"/>
<path id="Vector_9" d="M28.138 17.1036L30.3449 14.8967C30.0442 14.5963 29.6508 14.4064 29.2286 14.3579L28.1369 15.4505C28.0284 15.5591 27.9423 15.688 27.8836 15.8298C27.825 15.9717 27.7948 16.1238 27.7949 16.2773C27.795 16.4308 27.8254 16.5828 27.8842 16.7246C27.9431 16.8664 28.0293 16.9952 28.138 17.1036Z" fill="#4895AA"/>
<path id="Vector_10" d="M31.4487 16L31.4358 16.0129C31.4442 16.0845 31.4485 16.1565 31.4487 16.2286V16.4848C31.4487 17.2341 31.151 17.9528 30.6211 18.4827C30.0912 19.0126 29.3725 19.3103 28.6232 19.3103H27.9354C27.3588 19.3103 26.8058 19.5394 26.3981 19.9471C26.0752 20.27 25.6919 20.5261 25.2701 20.7008C24.8482 20.8756 24.3961 20.9655 23.9394 20.9655H23.7245L22.6211 22.069H25.9314L26.9499 21.0506C27.3576 20.6428 27.9105 20.4138 28.4871 20.4138H29.1749C29.9243 20.4138 30.6429 20.1161 31.1728 19.5862C31.7027 19.0563 32.0004 18.3376 32.0004 17.5882V17.332C32.0004 16.8324 31.8019 16.3533 31.4487 16Z" fill="#4895AA"/>
<path id="Vector_11" d="M6.62093 18.7585H4.41403V10.4827L3.8623 9.37923L4.41403 6.62061H6.62093L7.17265 9.37923L6.62093 10.4827V18.7585Z" fill="#96D6E4"/>
<path id="Vector_12" d="M6.62103 6.62061H5.51758L6.0693 9.37923L5.51758 10.4827V18.7585H6.62103V10.4827L7.17275 9.37923L6.62103 6.62061Z" fill="#4895AA"/>
<path id="Vector_13" d="M8.27603 22.0691H2.75879V21.5824C2.75877 21.1768 2.85322 20.7767 3.03465 20.4139C3.21608 20.0511 3.31053 19.651 3.31051 19.2453V17.6553H7.72431V19.2453C7.72429 19.651 7.81874 20.0511 8.00017 20.4139C8.1816 20.7767 8.27605 21.1768 8.27603 21.5824V22.0691Z" fill="#AF1E4B"/>
<path id="Vector_14" d="M4.13479 20.9725C4.31456 20.6196 4.41011 20.2298 4.41396 19.8338V19.252C4.41396 18.9749 4.52406 18.7091 4.72004 18.5131C4.91603 18.3171 5.18184 18.207 5.459 18.207H7.72431V17.6553H3.31051V19.2468C3.30632 19.6606 3.2079 20.068 3.02272 20.438C2.84907 20.7945 2.75881 21.1859 2.75879 21.5824V22.0691H3.8641C3.87329 21.6882 3.96568 21.3139 4.13479 20.9725Z" fill="#DD1C4B"/>
<path id="Vector_15" d="M20.445 20.4443L17.165 19.9925L18.3137 12.6895L21.5779 13.2412L20.445 20.4443Z" fill="#2A6377"/>
<path id="Vector_16" d="M20.445 20.4443L17.165 19.9925L17.6823 16.7058C18.3745 16.8178 19.0843 16.6864 19.6905 16.3339C20.2968 15.9814 20.762 15.4297 21.0071 14.7726L21.5779 13.2412L20.445 20.4443Z" fill="#4895AA"/>
<path id="Vector_17" d="M16.6836 19.5645L21.0444 20.2486L20.3603 24.6094L15.9995 23.9253L16.6836 19.5645Z" fill="#0A4566"/>
<path id="Vector_18" d="M17.3998 24.1502L15.9873 23.928L16.6731 19.5679L21.0333 20.2537L20.2257 20.2961C19.5926 20.3293 18.9902 20.5791 18.5194 21.0036C18.0486 21.428 17.7379 22.0014 17.6394 22.6276L17.3998 24.1502Z" fill="#045F9C"/>
<path id="Vector_19" d="M10.4824 9.93115H14.8962V23.1725H10.4824V9.93115Z" fill="#EFD66A"/>
<path id="Vector_20" d="M10.4824 9.93115H14.8962V17.6553C14.8962 18.8259 14.4312 19.9486 13.6034 20.7763C12.7757 21.6041 11.653 22.0691 10.4824 22.0691V9.93115Z" fill="#F6E597"/>
<path id="Vector_21" d="M24.7871 14.1421L15.7822 12.7257L16.3435 9.46289L22.0313 10.3575C22.4608 10.4251 22.8727 10.5765 23.2436 10.8033C23.6145 11.03 23.9371 11.3276 24.193 11.679C24.4489 12.0305 24.6331 12.4289 24.735 12.8515C24.837 13.2741 24.8547 13.7126 24.7871 14.1421Z" fill="#96D6E4"/>
<path id="Vector_22" d="M17.3164 10.5166L17.4543 9.63794L16.5808 9.50049L16.0664 12.7706L24.787 14.1423C24.8426 13.7894 24.8406 13.4297 24.781 13.0775L18.4569 12.0827C18.2792 12.0548 18.1087 11.9921 17.9552 11.8983C17.8017 11.8044 17.6682 11.6813 17.5623 11.5359C17.4564 11.3904 17.3802 11.2256 17.338 11.0507C17.2958 10.8758 17.2885 10.6943 17.3164 10.5166Z" fill="#4895AA"/>
<path id="Vector_23" d="M14.4932 8.60791L16.6736 8.94998L15.9894 13.3108L13.809 12.9687L14.4932 8.60791Z" fill="#045F9C"/>
<path id="Vector_24" d="M15.9809 13.3156L13.8008 12.9724L14.0491 11.3946C14.1408 10.811 14.4569 10.2864 14.9299 9.93253C15.4028 9.57864 15.9953 9.42348 16.5811 9.50011L15.9809 13.3156Z" fill="#0A4566"/>
<g id="Group">
<path id="Vector_25" d="M10.4824 19.3101H12.1376V20.4135H10.4824V19.3101Z" fill="#EFD66A"/>
<path id="Vector_26" d="M10.4824 17.1035H12.1376V18.207H10.4824V17.1035Z" fill="#EFD66A"/>
<path id="Vector_27" d="M10.4824 14.8965H12.1376V15.9999H10.4824V14.8965Z" fill="#EFD66A"/>
</g>
<path id="Vector_28" d="M0 22.0688H32V31.9999H0V22.0688Z" fill="#FEAC4F"/>
<path id="Vector_29" d="M30.8966 22.0688V28.9733C30.8966 29.2259 30.8468 29.476 30.7502 29.7093C30.6535 29.9426 30.5119 30.1546 30.3333 30.3332C30.1547 30.5118 29.9427 30.6534 29.7094 30.7501C29.4761 30.8467 29.226 30.8964 28.9734 30.8964H2.46559C1.59343 30.8964 0.756991 31.2429 0.140276 31.8596L0 31.9999H32V22.0688H30.8966Z" fill="#D68029"/>
<path id="Vector_30" d="M0.269448 31.1787L0 31.4482V22.0688H1.10345V29.1654C1.1034 29.9205 0.803408 30.6447 0.269448 31.1787Z" fill="#FFD199"/>
<path id="Vector_31" d="M6.62109 24.2759H11.0349V27.5862H6.62109V24.2759Z" fill="#D68029"/>
<path id="Vector_32" d="M20.9658 24.2759H25.3796V27.5862H20.9658V24.2759Z" fill="#D68029"/>
<path id="Vector_33" d="M0 22.0688H32V24.2757H0V22.0688Z" fill="#2993CE"/>
<path id="Vector_34" d="M30.8965 22.0688H31.9999V24.2757H30.8965V22.0688Z" fill="#045F9C"/>
</g>
</svg>
