<?xml version="1.0" encoding="UTF-8"?>
<svg id="Layer_1" data-name="Layer 1" xmlns="http://www.w3.org/2000/svg" xmlns:xlink="http://www.w3.org/1999/xlink" viewBox="0 0 40 40">
  <defs>
    <style>
      .cls-1 {
        fill: #fff;
      }

      .cls-2 {
        fill: #002a70;
      }

      .cls-3 {
        stroke: #fff;
        stroke-miterlimit: 10;
      }

      .cls-3, .cls-4 {
        fill: none;
      }

      .cls-5 {
        fill: #b01820;
      }

      .cls-6 {
        clip-path: url(#clippath-1);
      }

      .cls-7 {
        fill: #039;
      }

      .cls-8 {
        clip-path: url(#clippath);
      }

      .cls-9 {
        fill: #fc0;
      }
    </style>
    <clipPath id="clippath">
      <circle class="cls-4" cx="11.13" cy="20.3" r="10.73"/>
    </clipPath>
    <clipPath id="clippath-1">
      <circle class="cls-3" cx="28.87" cy="20.3" r="10.73"/>
    </clipPath>
  </defs>
  <g class="cls-8">
    <g>
      <rect class="cls-7" x="-4.96" y="9.57" width="32.18" height="21.45"/>
      <g>
        <polygon class="cls-9" points="11.13 12.87 10.89 13.58 10.15 13.58 10.75 14.02 10.52 14.73 11.13 14.29 11.73 14.73 11.5 14.02 12.1 13.58 11.36 13.58 11.13 12.87"/>
        <polygon class="cls-9" points="7.91 13.73 7.68 14.44 6.93 14.44 7.54 14.88 7.31 15.59 7.91 15.15 8.51 15.59 8.28 14.88 8.89 14.44 8.14 14.44 7.91 13.73"/>
        <polygon class="cls-9" points="5.55 16.09 5.32 16.8 4.58 16.8 5.18 17.24 4.95 17.95 5.55 17.51 6.16 17.95 5.93 17.24 6.53 16.8 5.78 16.8 5.55 16.09"/>
        <polygon class="cls-9" points="4.69 20.73 5.3 21.16 5.06 20.45 5.67 20.02 4.92 20.02 4.69 19.31 4.46 20.02 3.72 20.02 4.32 20.45 4.09 21.16 4.69 20.73"/>
        <polygon class="cls-9" points="5.78 23.23 5.55 22.52 5.32 23.23 4.58 23.23 5.18 23.67 4.95 24.38 5.55 23.94 6.16 24.38 5.93 23.67 6.53 23.23 5.78 23.23"/>
        <polygon class="cls-9" points="8.14 25.59 7.91 24.88 7.68 25.59 6.93 25.59 7.54 26.03 7.31 26.74 7.91 26.3 8.51 26.74 8.28 26.03 8.89 25.59 8.14 25.59"/>
        <polygon class="cls-9" points="11.73 27.62 11.13 27.18 10.52 27.62 10.75 26.91 10.15 26.47 10.89 26.47 11.13 25.76 11.36 26.47 12.1 26.47 11.5 26.91 11.73 27.62"/>
        <polygon class="cls-9" points="14.57 25.59 14.34 24.88 14.11 25.59 13.37 25.59 13.97 26.03 13.74 26.74 14.34 26.3 14.95 26.74 14.72 26.03 15.32 25.59 14.57 25.59"/>
        <polygon class="cls-9" points="16.93 23.23 16.7 22.52 16.47 23.23 15.72 23.23 16.32 23.67 16.09 24.38 16.7 23.94 17.3 24.38 17.07 23.67 17.67 23.23 16.93 23.23"/>
        <polygon class="cls-9" points="18.54 20.02 17.79 20.02 17.56 19.31 17.33 20.02 16.58 20.02 17.19 20.45 16.96 21.16 17.56 20.73 18.16 21.16 17.93 20.45 18.54 20.02"/>
        <polygon class="cls-9" points="16.09 17.95 16.7 17.51 17.3 17.95 17.07 17.24 17.67 16.8 16.93 16.8 16.7 16.09 16.47 16.8 15.72 16.8 16.32 17.24 16.09 17.95"/>
        <polygon class="cls-9" points="14.34 13.73 14.11 14.44 13.37 14.44 13.97 14.88 13.74 15.59 14.34 15.15 14.95 15.59 14.72 14.88 15.32 14.44 14.57 14.44 14.34 13.73"/>
      </g>
    </g>
  </g>
  <g>
    <g class="cls-6">
      <g>
        <g>
          <g>
            <rect class="cls-5" x="12.57" y="9.57" width="40.76" height="1.65"/>
            <rect class="cls-5" x="12.57" y="29.38" width="40.76" height="1.65"/>
            <rect class="cls-5" x="12.57" y="26.08" width="40.76" height="1.65"/>
            <rect class="cls-5" x="12.57" y="22.78" width="40.76" height="1.65"/>
            <rect class="cls-5" x="12.57" y="19.47" width="40.76" height="1.65"/>
            <rect class="cls-5" x="12.57" y="16.17" width="40.76" height="1.65"/>
            <rect class="cls-5" x="12.57" y="12.87" width="40.76" height="1.65"/>
          </g>
          <g>
            <rect class="cls-1" x="12.57" y="27.73" width="40.76" height="1.65"/>
            <rect class="cls-1" x="12.57" y="24.43" width="40.76" height="1.65"/>
            <rect class="cls-1" x="12.57" y="21.13" width="40.76" height="1.65"/>
            <rect class="cls-1" x="12.57" y="17.82" width="40.76" height="1.65"/>
            <rect class="cls-1" x="12.57" y="14.52" width="40.76" height="1.65"/>
            <rect class="cls-1" x="12.57" y="11.22" width="40.76" height="1.65"/>
          </g>
        </g>
        <rect class="cls-2" x="12.57" y="9.57" width="16.3" height="11.55"/>
        <g>
          <polygon class="cls-1" points="13.93 10.07 13.78 10.53 13.3 10.53 13.69 10.81 13.54 11.26 13.93 10.98 14.32 11.26 14.17 10.81 14.56 10.53 14.08 10.53 13.93 10.07"/>
          <polygon class="cls-1" points="16.65 10.07 16.5 10.53 16.02 10.53 16.41 10.81 16.26 11.26 16.65 10.98 17.04 11.26 16.89 10.81 17.28 10.53 16.8 10.53 16.65 10.07"/>
          <polygon class="cls-1" points="19.36 10.07 19.22 10.53 18.74 10.53 19.12 10.81 18.98 11.26 19.36 10.98 19.75 11.26 19.6 10.81 19.99 10.53 19.51 10.53 19.36 10.07"/>
          <polygon class="cls-1" points="22.08 10.07 21.93 10.53 21.45 10.53 21.84 10.81 21.69 11.26 22.08 10.98 22.47 11.26 22.32 10.81 22.71 10.53 22.23 10.53 22.08 10.07"/>
          <polygon class="cls-1" points="24.8 10.07 24.65 10.53 24.17 10.53 24.56 10.81 24.41 11.26 24.8 10.98 25.19 11.26 25.04 10.81 25.43 10.53 24.95 10.53 24.8 10.07"/>
          <polygon class="cls-1" points="27.13 11.26 27.52 10.98 27.9 11.26 27.76 10.81 28.14 10.53 27.66 10.53 27.52 10.07 27.37 10.53 26.89 10.53 27.28 10.81 27.13 11.26"/>
          <polygon class="cls-1" points="13.93 12.38 13.78 12.84 13.3 12.84 13.69 13.12 13.54 13.57 13.93 13.29 14.32 13.57 14.17 13.12 14.56 12.84 14.08 12.84 13.93 12.38"/>
          <polygon class="cls-1" points="16.65 12.38 16.5 12.84 16.02 12.84 16.41 13.12 16.26 13.57 16.65 13.29 17.04 13.57 16.89 13.12 17.28 12.84 16.8 12.84 16.65 12.38"/>
          <polygon class="cls-1" points="19.36 12.38 19.22 12.84 18.74 12.84 19.12 13.12 18.98 13.57 19.36 13.29 19.75 13.57 19.6 13.12 19.99 12.84 19.51 12.84 19.36 12.38"/>
          <polygon class="cls-1" points="22.08 12.38 21.93 12.84 21.45 12.84 21.84 13.12 21.69 13.57 22.08 13.29 22.47 13.57 22.32 13.12 22.71 12.84 22.23 12.84 22.08 12.38"/>
          <polygon class="cls-1" points="24.8 12.38 24.65 12.84 24.17 12.84 24.56 13.12 24.41 13.57 24.8 13.29 25.19 13.57 25.04 13.12 25.43 12.84 24.95 12.84 24.8 12.38"/>
          <polygon class="cls-1" points="27.52 12.38 27.37 12.84 26.89 12.84 27.28 13.12 27.13 13.57 27.52 13.29 27.9 13.57 27.76 13.12 28.14 12.84 27.66 12.84 27.52 12.38"/>
          <polygon class="cls-1" points="13.93 14.69 13.78 15.15 13.3 15.15 13.69 15.43 13.54 15.88 13.93 15.6 14.32 15.88 14.17 15.43 14.56 15.15 14.08 15.15 13.93 14.69"/>
          <polygon class="cls-1" points="16.65 14.69 16.5 15.15 16.02 15.15 16.41 15.43 16.26 15.88 16.65 15.6 17.04 15.88 16.89 15.43 17.28 15.15 16.8 15.15 16.65 14.69"/>
          <polygon class="cls-1" points="19.36 14.69 19.22 15.15 18.74 15.15 19.12 15.43 18.98 15.88 19.36 15.6 19.75 15.88 19.6 15.43 19.99 15.15 19.51 15.15 19.36 14.69"/>
          <polygon class="cls-1" points="22.08 14.69 21.93 15.15 21.45 15.15 21.84 15.43 21.69 15.88 22.08 15.6 22.47 15.88 22.32 15.43 22.71 15.15 22.23 15.15 22.08 14.69"/>
          <polygon class="cls-1" points="24.8 14.69 24.65 15.15 24.17 15.15 24.56 15.43 24.41 15.88 24.8 15.6 25.19 15.88 25.04 15.43 25.43 15.15 24.95 15.15 24.8 14.69"/>
          <polygon class="cls-1" points="27.52 14.69 27.37 15.15 26.89 15.15 27.28 15.43 27.13 15.88 27.52 15.6 27.9 15.88 27.76 15.43 28.14 15.15 27.66 15.15 27.52 14.69"/>
          <polygon class="cls-1" points="13.93 17 13.78 17.46 13.3 17.46 13.69 17.74 13.54 18.19 13.93 17.91 14.32 18.19 14.17 17.74 14.56 17.46 14.08 17.46 13.93 17"/>
          <polygon class="cls-1" points="16.65 17 16.5 17.46 16.02 17.46 16.41 17.74 16.26 18.19 16.65 17.91 17.04 18.19 16.89 17.74 17.28 17.46 16.8 17.46 16.65 17"/>
          <polygon class="cls-1" points="19.36 17 19.22 17.46 18.74 17.46 19.12 17.74 18.98 18.19 19.36 17.91 19.75 18.19 19.6 17.74 19.99 17.46 19.51 17.46 19.36 17"/>
          <polygon class="cls-1" points="22.08 17 21.93 17.46 21.45 17.46 21.84 17.74 21.69 18.19 22.08 17.91 22.47 18.19 22.32 17.74 22.71 17.46 22.23 17.46 22.08 17"/>
          <polygon class="cls-1" points="24.8 17 24.65 17.46 24.17 17.46 24.56 17.74 24.41 18.19 24.8 17.91 25.19 18.19 25.04 17.74 25.43 17.46 24.95 17.46 24.8 17"/>
          <polygon class="cls-1" points="27.52 17 27.37 17.46 26.89 17.46 27.28 17.74 27.13 18.19 27.52 17.91 27.9 18.19 27.76 17.74 28.14 17.46 27.66 17.46 27.52 17"/>
          <polygon class="cls-1" points="14.08 19.77 13.93 19.31 13.78 19.77 13.3 19.77 13.69 20.05 13.54 20.5 13.93 20.22 14.32 20.5 14.17 20.05 14.56 19.77 14.08 19.77"/>
          <polygon class="cls-1" points="16.8 19.77 16.65 19.31 16.5 19.77 16.02 19.77 16.41 20.05 16.26 20.5 16.65 20.22 17.04 20.5 16.89 20.05 17.28 19.77 16.8 19.77"/>
          <polygon class="cls-1" points="19.51 19.77 19.36 19.31 19.22 19.77 18.74 19.77 19.12 20.05 18.98 20.5 19.36 20.22 19.75 20.5 19.6 20.05 19.99 19.77 19.51 19.77"/>
          <polygon class="cls-1" points="22.23 19.77 22.08 19.31 21.93 19.77 21.45 19.77 21.84 20.05 21.69 20.5 22.08 20.22 22.47 20.5 22.32 20.05 22.71 19.77 22.23 19.77"/>
          <polygon class="cls-1" points="24.95 19.77 24.8 19.31 24.65 19.77 24.17 19.77 24.56 20.05 24.41 20.5 24.8 20.22 25.19 20.5 25.04 20.05 25.43 19.77 24.95 19.77"/>
          <polygon class="cls-1" points="27.66 19.77 27.52 19.31 27.37 19.77 26.89 19.77 27.28 20.05 27.13 20.5 27.52 20.22 27.9 20.5 27.76 20.05 28.14 19.77 27.66 19.77"/>
          <polygon class="cls-1" points="15.29 11.22 15.14 11.68 14.66 11.68 15.05 11.96 14.9 12.42 15.29 12.14 15.68 12.42 15.53 11.96 15.92 11.68 15.44 11.68 15.29 11.22"/>
          <polygon class="cls-1" points="18.01 11.22 17.86 11.68 17.38 11.68 17.77 11.96 17.62 12.42 18.01 12.14 18.39 12.42 18.25 11.96 18.63 11.68 18.15 11.68 18.01 11.22"/>
          <polygon class="cls-1" points="20.72 11.22 20.57 11.68 20.09 11.68 20.48 11.96 20.33 12.42 20.72 12.14 21.11 12.42 20.96 11.96 21.35 11.68 20.87 11.68 20.72 11.22"/>
          <polygon class="cls-1" points="23.44 11.22 23.29 11.68 22.81 11.68 23.2 11.96 23.05 12.42 23.44 12.14 23.83 12.42 23.68 11.96 24.07 11.68 23.59 11.68 23.44 11.22"/>
          <polygon class="cls-1" points="26.16 11.22 26.01 11.68 25.53 11.68 25.92 11.96 25.77 12.42 26.16 12.14 26.55 12.42 26.4 11.96 26.79 11.68 26.31 11.68 26.16 11.22"/>
          <polygon class="cls-1" points="15.29 13.53 15.14 13.99 14.66 13.99 15.05 14.27 14.9 14.73 15.29 14.45 15.68 14.73 15.53 14.27 15.92 13.99 15.44 13.99 15.29 13.53"/>
          <polygon class="cls-1" points="18.01 13.53 17.86 13.99 17.38 13.99 17.77 14.27 17.62 14.73 18.01 14.45 18.39 14.73 18.25 14.27 18.63 13.99 18.15 13.99 18.01 13.53"/>
          <polygon class="cls-1" points="20.72 13.53 20.57 13.99 20.09 13.99 20.48 14.27 20.33 14.73 20.72 14.45 21.11 14.73 20.96 14.27 21.35 13.99 20.87 13.99 20.72 13.53"/>
          <polygon class="cls-1" points="23.44 13.53 23.29 13.99 22.81 13.99 23.2 14.27 23.05 14.73 23.44 14.45 23.83 14.73 23.68 14.27 24.07 13.99 23.59 13.99 23.44 13.53"/>
          <polygon class="cls-1" points="26.16 13.53 26.01 13.99 25.53 13.99 25.92 14.27 25.77 14.73 26.16 14.45 26.55 14.73 26.4 14.27 26.79 13.99 26.31 13.99 26.16 13.53"/>
          <polygon class="cls-1" points="15.29 15.84 15.14 16.3 14.66 16.3 15.05 16.58 14.9 17.04 15.29 16.76 15.68 17.04 15.53 16.58 15.92 16.3 15.44 16.3 15.29 15.84"/>
          <polygon class="cls-1" points="18.01 15.84 17.86 16.3 17.38 16.3 17.77 16.58 17.62 17.04 18.01 16.76 18.39 17.04 18.25 16.58 18.63 16.3 18.15 16.3 18.01 15.84"/>
          <polygon class="cls-1" points="20.72 15.84 20.57 16.3 20.09 16.3 20.48 16.58 20.33 17.04 20.72 16.76 21.11 17.04 20.96 16.58 21.35 16.3 20.87 16.3 20.72 15.84"/>
          <polygon class="cls-1" points="23.44 15.84 23.29 16.3 22.81 16.3 23.2 16.58 23.05 17.04 23.44 16.76 23.83 17.04 23.68 16.58 24.07 16.3 23.59 16.3 23.44 15.84"/>
          <polygon class="cls-1" points="26.16 15.84 26.01 16.3 25.53 16.3 25.92 16.58 25.77 17.04 26.16 16.76 26.55 17.04 26.4 16.58 26.79 16.3 26.31 16.3 26.16 15.84"/>
          <polygon class="cls-1" points="15.44 18.61 15.29 18.15 15.14 18.61 14.66 18.61 15.05 18.89 14.9 19.35 15.29 19.07 15.68 19.35 15.53 18.89 15.92 18.61 15.44 18.61"/>
          <polygon class="cls-1" points="18.15 18.61 18.01 18.15 17.86 18.61 17.38 18.61 17.77 18.89 17.62 19.35 18.01 19.07 18.39 19.35 18.25 18.89 18.63 18.61 18.15 18.61"/>
          <polygon class="cls-1" points="20.87 18.61 20.72 18.15 20.57 18.61 20.09 18.61 20.48 18.89 20.33 19.35 20.72 19.07 21.11 19.35 20.96 18.89 21.35 18.61 20.87 18.61"/>
          <polygon class="cls-1" points="23.59 18.61 23.44 18.15 23.29 18.61 22.81 18.61 23.2 18.89 23.05 19.35 23.44 19.07 23.83 19.35 23.68 18.89 24.07 18.61 23.59 18.61"/>
          <polygon class="cls-1" points="26.31 18.61 26.16 18.15 26.01 18.61 25.53 18.61 25.92 18.89 25.77 19.35 26.16 19.07 26.55 19.35 26.4 18.89 26.79 18.61 26.31 18.61"/>
        </g>
      </g>
    </g>
    <circle class="cls-3" cx="28.87" cy="20.3" r="10.73"/>
  </g>
</svg>