<svg width="32" height="32" viewBox="0 0 32 32" fill="none" xmlns="http://www.w3.org/2000/svg">
<g id="Frame 1000002851">
<g id="Icons">
<g id="Group">
<g id="Group_2">
<path id="Vector" d="M24.365 19.4286C23.0799 22.1286 20.3347 24 17.145 24C12.7267 24 9.14502 20.4183 9.14502 16C9.14502 11.5817 12.7267 8 17.145 8C18.3736 8 19.533 8.28514 20.5736 8.78V8H25.145V5.71429H29.4867L26.8427 3.07029L24.2696 5.64343C22.8422 4.65943 21.2016 3.96514 19.4313 3.64V0H14.8599V3.64C13.0896 3.96514 11.449 4.66 10.0216 5.64343L7.44845 3.07029L4.21588 6.30286L6.78902 8.876C5.80445 10.3029 5.11016 11.944 4.78502 13.7143H1.14502V18.2857H4.78502C5.11073 20.056 5.80502 21.6966 6.78845 23.124L4.21531 25.6971L7.44788 28.9297L10.021 26.3566C11.4484 27.3406 13.089 28.0349 14.8593 28.3606V32H19.4307V28.36C21.201 28.0343 22.8416 27.34 24.269 26.356L26.8422 28.9291L30.0747 25.6966L27.5016 23.1234C28.2696 22.0086 28.8587 20.7629 29.2359 19.428L24.365 19.4286Z" fill="#FAB400"/>
</g>
<g id="Group_3">
<g id="Group_4">
<path id="Vector_2" d="M12.3067 5.64343C13.7342 4.65943 15.3747 3.96514 17.145 3.63943V0H14.8593V3.64C13.6559 3.86114 12.5142 4.25657 11.457 4.79371L12.3067 5.64343Z" fill="#DC9600"/>
</g>
</g>
<g id="Group_5">
<g id="Group_6">
<path id="Vector_3" d="M4.78456 13.7143H7.07027C7.39599 11.944 8.09027 10.3035 9.0737 8.87603L6.50056 6.30288L8.59027 4.21317L7.44741 3.07031L4.21484 6.30288L6.78799 8.87603C5.80456 10.3035 5.11027 11.944 4.78456 13.7143Z" fill="#DC9600"/>
</g>
</g>
<g id="Group_7">
<g id="Group_8">
<path id="Vector_4" d="M12.3067 26.3564L11.457 27.2062C12.5142 27.7433 13.6559 28.1387 14.8593 28.3599V31.9999H17.145V28.3604C15.3747 28.0347 13.7342 27.3404 12.3067 26.3564Z" fill="#DC9600"/>
</g>
</g>
<g id="Group_9">
<g id="Group_10">
<path id="Vector_5" d="M1.14502 13.7144H3.43073V18.2858H1.14502V13.7144Z" fill="#DC9600"/>
</g>
</g>
<g id="Group_11">
<g id="Group_12">
<path id="Vector_6" d="M6.50105 25.6976L9.07419 23.1244C8.09076 21.697 7.3959 20.0564 7.07076 18.2861H4.78505C5.11076 20.0564 5.80505 21.6976 6.78847 23.1244L4.21533 25.6976L7.4479 28.9301L8.59076 27.7873L6.50105 25.6976Z" fill="#DC9600"/>
</g>
</g>
<g id="Group_13">
<path id="Vector_7" d="M11.4307 17.1431H30.8592V18.2859H11.4307V17.1431Z" fill="#505050"/>
</g>
<g id="Group_14">
<path id="Vector_8" d="M21.7163 9.14307H25.1449V17.1431H21.7163V9.14307Z" fill="#3CC8B4"/>
</g>
<g id="Group_15">
<path id="Vector_9" d="M21.7163 9.14307H22.8592V17.1431H21.7163V9.14307Z" fill="#1EAA96"/>
</g>
<g id="Group_16">
<path id="Vector_10" d="M18.2881 23.9093C18.6624 23.963 19.0418 24.0001 19.4309 24.0001C22.6207 24.0001 25.3658 22.1287 26.6509 19.4287H24.3704C23.2412 21.7973 20.9818 23.523 18.2881 23.9093Z" fill="#DC9600"/>
</g>
<g id="Group_17">
<path id="Vector_11" d="M26.2881 6.85693H29.7167V17.1426H26.2881V6.85693Z" fill="#64C8F0"/>
</g>
<g id="Group_18">
<path id="Vector_12" d="M26.2881 6.85693H27.4309V17.1426H26.2881V6.85693Z" fill="#46AAD2"/>
</g>
<g id="Group_19">
<path id="Vector_13" d="M12.5737 13.7144H16.0023V17.1429H12.5737V13.7144Z" fill="#FA6450"/>
</g>
<g id="Group_20">
<path id="Vector_14" d="M12.5737 13.7144H13.7166V17.1429H12.5737V13.7144Z" fill="#DC4632"/>
</g>
<g id="Group_21">
<path id="Vector_15" d="M17.145 11.4287H20.5736V17.143H17.145V11.4287Z" fill="#FAB400"/>
</g>
<g id="Group_22">
<path id="Vector_16" d="M17.145 11.4287H18.2879V17.143H17.145V11.4287Z" fill="#DC9600"/>
</g>
</g>
</g>
</g>
</svg>
